{
.appVersion = "3306";
.formatVersion = 3;
DisplayStrings = (
".",
"/zero.tf/one.tf/two.tf/three.tf",
G,
E,
B,
"ËÈẼFGḠH",
"ä",
a,
"á",
"AÁÂÄÀÅÃÆBCÇDÐEÉÊËÈẼFGḠHIĲÍÎÏÌĨJ/Jacute KLMNÑOÓÔÖÒØÕŒPÞQRSŠẞTUÚÛÜÙŨVWẂŴẄẀXYÝŶŸỲỸZ/R.001 aáâäàåãæbcçdðeéêëèẽfgḡhiíîïìĩĳjȷ/jacute klmnñoóôöòøõœpþqrsšßtuúûüùũvwẃŵẅẁxyýŷÿỳỹz/g.001/k.001",
""
);
axes = (
{
name = Weight;
tag = wght;
}
);
date = "2026-03-08 17:25:11 +0000";
familyName = "Brutalist Grotesk 7";
featurePrefixes = (
{
automatic = 1;
code = "languagesystem DFLT dflt;
";
name = Languagesystems;
}
);
features = (
{
automatic = 1;
code = "lookupflag IgnoreMarks;
sub t t by t_t.liga;
";
tag = liga;
}
);
fontMaster = (
{
axesValues = (
100
);
customParameters = (
{
disabled = 1;
name = "Edit View LineHeight ";
value = "20";
}
);
iconName = SemiBold_SemiExtended;
id = m01;
metricValues = (
{
over = 5;
pos = 800;
},
{
pos = 712;
},
{
over = 20;
pos = 518;
},
{
over = -20;
},
{
pos = -301;
},
{
}
);
name = Regular;
userData = {
GSCornerRadius = 100;
};
}
);
glyphs = (
{
glyphname = A;
lastChange = "2026-05-16 20:31:53 +0000";
layers = (
{
anchors = (
{
name = top;
pos = (384,686);
}
);
layerId = m01;
shapes = (
{
closed = 1;
nodes = (
(175,1,l),
(231,172,l),
(165,250,l),
(185,263,l),
(198,245,o),
(210,231,o),
(227,216,cs),
(261,187,o),
(293,180,o),
(350,177,cs),
(351,177,o),
(384,177,o),
(384,177,c),
(422,177,o),
(411,177,o),
(412,177,cs),
(471,180,o),
(503,186,o),
(537,216,cs),
(554,231,o),
(567,245,o),
(579,263,c),
(599,250,l),
(533,172,l),
(589,1,l),
(723,1,l),
(489,712,l),
(275,712,l),
(41,1,l)
);
},
{
closed = 1;
nodes = (
(384,626,l),
(501,270,l),
(263,270,l)
);
}
);
width = 764;
}
);
metricLeft = o;
metricRight = o;
unicode = 65;
},
{
glyphname = Aacute;
lastChange = "2026-05-16 20:37:43 +0000";
layers = (
{
hints = (
{
horizontal = 1;
place = (766,150);
type = Stem;
},
{
place = (307,241);
type = Stem;
}
);
layerId = m01;
shapes = (
{
ref = A;
},
{
closed = 1;
nodes = (
(336,766,l),
(427,766,l),
(549,916,l),
(420,916,l)
);
}
);
width = 764;
}
);
unicode = 193;
},
{
glyphname = Adieresis;
lastChange = "2026-05-16 20:44:58 +0000";
layers = (
{
anchors = (
{
name = top;
pos = (660,686);
}
);
layerId = m01;
shapes = (
{
closed = 1;
nodes = (
(175,1,l),
(231,172,l),
(165,250,l),
(185,263,l),
(198,245,o),
(210,231,o),
(227,216,cs),
(261,187,o),
(293,180,o),
(350,177,cs),
(351,177,o),
(384,177,o),
(384,177,c),
(422,177,o),
(411,177,o),
(412,177,cs),
(471,180,o),
(503,186,o),
(537,216,cs),
(554,231,o),
(567,245,o),
(579,263,c),
(599,250,l),
(533,172,l),
(589,1,l),
(723,1,l),
(489,712,l),
(275,712,l),
(41,1,l)
);
},
{
closed = 1;
nodes = (
(384,626,l),
(501,270,l),
(263,270,l)
);
},
{
pos = (777,0);
ref = dieresis;
}
);
width = 764;
}
);
metricLeft = A;
metricRight = A;
unicode = 196;
},
{
glyphname = Agrave;
lastChange = "2026-05-16 20:37:51 +0000";
layers = (
{
anchors = (
{
name = top;
pos = (384,686);
}
);
layerId = m01;
shapes = (
{
closed = 1;
nodes = (
(175,1,l),
(231,172,l),
(165,250,l),
(185,263,l),
(198,245,o),
(210,231,o),
(227,216,cs),
(261,187,o),
(293,180,o),
(350,177,cs),
(351,177,o),
(384,177,o),
(384,177,c),
(422,177,o),
(411,177,o),
(412,177,cs),
(471,180,o),
(503,186,o),
(537,216,cs),
(554,231,o),
(567,245,o),
(579,263,c),
(599,250,l),
(533,172,l),
(589,1,l),
(723,1,l),
(489,712,l),
(275,712,l),
(41,1,l)
);
},
{
closed = 1;
nodes = (
(384,626,l),
(501,270,l),
(263,270,l)
);
},
{
pos = (125,176);
ref = gravecomb;
}
);
width = 764;
}
);
unicode = 192;
},
{
glyphname = Aring;
lastChange = "2026-05-16 20:38:38 +0000";
layers = (
{
anchors = (
{
name = top;
pos = (384,686);
}
);
layerId = m01;
shapes = (
{
closed = 1;
nodes = (
(175,1,l),
(231,172,l),
(165,250,l),
(185,263,l),
(198,245,o),
(210,231,o),
(227,216,cs),
(261,187,o),
(293,180,o),
(350,177,cs),
(351,177,o),
(384,177,o),
(384,177,c),
(422,177,o),
(411,177,o),
(412,177,cs),
(471,180,o),
(503,186,o),
(537,216,cs),
(554,231,o),
(567,245,o),
(579,263,c),
(599,250,l),
(533,172,l),
(589,1,l),
(723,1,l),
(489,712,l),
(275,712,l),
(41,1,l)
);
},
{
closed = 1;
nodes = (
(384,626,l),
(501,270,l),
(263,270,l)
);
},
{
pos = (191,52);
ref = ring;
}
);
width = 764;
}
);
unicode = 197;
},
{
glyphname = B;
lastChange = "2026-05-23 20:22:31 +0000";
layers = (
{
anchors = (
{
name = top;
pos = (318,686);
}
);
layerId = m01;
shapes = (
{
closed = 1;
nodes = (
(52,-4,l),
(381,0,ls),
(517,2,o),
(614,62,o),
(614,189,cs),
(614,308,o),
(525,362,o),
(435,362,c),
(435,379,l),
(525,379,o),
(591,416,o),
(589,521,cs),
(587,628,o),
(500,714,o),
(371,712,cs),
(52,708,l)
);
},
{
closed = 1;
nodes = (
(187,99,l),
(187,319,l),
(343,319,ls),
(451,319,o),
(481,275,o),
(481,210,cs),
(481,142,o),
(424,99,o),
(344,99,cs)
);
},
{
closed = 1;
nodes = (
(187,416,l),
(187,616,l),
(335,616,ls),
(408,616,o),
(457,579,o),
(457,519,cs),
(457,457,o),
(407,416,o),
(342,416,cs)
);
}
);
width = 655;
}
);
metricLeft = h;
metricRight = o;
unicode = 66;
},
{
glyphname = C;
lastChange = "2026-05-16 21:11:14 +0000";
layers = (
{
anchors = (
{
name = top;
pos = (401,686);
}
);
layerId = m01;
shapes = (
{
closed = 1;
nodes = (
(580,213,l),
(563,153,o),
(501,108,o),
(407,108,cs),
(338,108,o),
(289,119,o),
(251,167,cs),
(187,261,o),
(187,456,o),
(251,549,cs),
(289,597,o),
(338,608,o),
(407,608,cs),
(501,608,o),
(563,563,o),
(580,503,c),
(719,503,l),
(699,646,o),
(605,726,o),
(415,726,cs),
(410,726,ls),
(195,726,o),
(70,629,o),
(70,360,cs),
(70,356,ls),
(70,87,o),
(195,-10,o),
(410,-10,cs),
(415,-10,ls),
(605,-10,o),
(699,70,o),
(719,213,c)
);
}
);
width = 789;
}
);
metricLeft = O;
metricRight = O;
unicode = 67;
},
{
glyphname = Ccedilla;
lastChange = "2026-05-16 21:11:14 +0000";
layers = (
{
hints = (
{
horizontal = 1;
place = (-68,59);
type = Stem;
},
{
horizontal = 1;
place = (-220,66);
type = Stem;
},
{
place = (930,78);
type = Stem;
},
{
place = (823,185);
type = Stem;
}
);
layerId = m01;
shapes = (
{
ref = C;
},
{
closed = 1;
nodes = (
(623,-155,o),
(674,-113,o),
(674,-46,cs),
(674,10,o),
(623,53,o),
(553,56,c),
(494,-3,l),
(521,-3,ls),
(571,-3,o),
(596,-22,o),
(596,-48,cs),
(596,-72,o),
(575,-89,o),
(541,-89,cs),
(524,-89,o),
(503,-85,o),
(489,-80,c),
(489,-146,l),
(504,-151,o),
(525,-155,o),
(547,-155,cs)
);
}
);
width = 789;
}
);
metricLeft = O;
metricRight = O;
unicode = 199;
},
{
glyphname = D;
lastChange = "2026-05-16 21:11:14 +0000";
layers = (
{
anchors = (
{
name = top;
pos = (333,686);
}
);
layerId = m01;
shapes = (
{
closed = 1;
nodes = (
(52,0,l),
(374,0,ls),
(618,0,o),
(694,179,o),
(694,358,cs),
(694,536,o),
(617,712,o),
(372,712,cs),
(52,712,l)
);
},
{
closed = 1;
nodes = (
(185,123,l),
(185,589,l),
(293,589,ls),
(447,589,o),
(561,579,o),
(561,359,cs),
(561,139,o),
(449,123,o),
(295,123,cs)
);
}
);
width = 735;
}
);
metricLeft = B;
metricRight = B;
unicode = 68;
},
{
glyphname = E;
lastChange = "2026-05-23 20:23:22 +0000";
layers = (
{
anchors = (
{
name = top;
pos = (350,686);
}
);
layerId = m01;
shapes = (
{
closed = 1;
nodes = (
(64,69,l),
(64,0,l),
(196,0,l),
(196,1,l),
(588,1,l),
(588,123,l),
(196,123,l),
(196,293,l),
(252,293,l),
(538,293,l),
(538,416,l),
(252,416,l),
(196,416,l),
(196,589,l),
(588,589,l),
(588,712,l),
(64,712,l)
);
}
);
width = 687;
},
{
associatedMasterId = m01;
layerId = "EB50F922-BB08-46A4-9883-C37A7116D28E";
name = "7 Apr 26 at 15:28";
shapes = (
{
closed = 1;
nodes = (
(21,647,l),
(21,712,l),
(-17,712,l),
(5,647,l)
);
},
{
closed = 1;
nodes = (
(5,492,ls),
(5,414,o),
(11,372,o),
(147,372,c),
(147,355,l),
(11,355,o),
(5,313,o),
(5,235,cs),
(5,0,l),
(137,0,l),
(137,299,l),
(391,299,l),
(391,410,l),
(137,410,l),
(137,712,l),
(5,712,l)
);
},
{
closed = 1;
nodes = (
(91,603,l),
(441,603,l),
(441,712,l),
(91,712,l)
);
},
{
closed = 1;
nodes = (
(91,1,l),
(441,1,l),
(441,110,l),
(91,110,l)
);
},
{
closed = 0;
nodes = (
(147,355,l),
(147,372,l)
);
},
{
closed = 1;
nodes = (
(-17,0,l),
(21,0,l),
(21,65,l),
(5,65,l)
);
}
);
width = 480;
}
);
unicode = 69;
},
{
glyphname = Ecircumflex;
lastChange = "2026-05-16 21:00:14 +0000";
layers = (
{
anchors = (
{
name = top;
pos = (350,686);
}
);
layerId = m01;
shapes = (
{
closed = 1;
nodes = (
(64,69,l),
(64,0,l),
(196,0,l),
(196,1,l),
(623,1,l),
(623,123,l),
(196,123,l),
(196,293,l),
(252,293,l),
(573,293,l),
(573,416,l),
(252,416,l),
(196,416,l),
(196,589,l),
(623,589,l),
(623,712,l),
(64,712,l)
);
},
{
pos = (726,0);
ref = circumflex;
}
);
width = 687;
}
);
metricLeft = E;
metricRight = E;
unicode = 202;
},
{
glyphname = Edieresis;
lastChange = "2026-05-16 21:00:25 +0000";
layers = (
{
hints = (
{
horizontal = 1;
place = (600,120);
type = Stem;
},
{
place = (928,120);
type = Stem;
},
{
place = (736,120);
type = Stem;
}
);
layerId = m01;
shapes = (
{
ref = E;
},
{
closed = 1;
nodes = (
(463,782,o),
(490,809,o),
(490,843,cs),
(490,875,o),
(463,902,o),
(429,902,cs),
(396,902,o),
(370,875,o),
(370,843,cs),
(370,809,o),
(396,782,o),
(429,782,cs)
);
},
{
closed = 1;
nodes = (
(178,809,o),
(204,782,o),
(237,782,cs),
(271,782,o),
(298,809,o),
(298,843,cs),
(298,875,o),
(271,902,o),
(237,902,cs),
(204,902,o),
(178,875,o),
(178,843,cs)
);
}
);
width = 687;
}
);
metricLeft = E;
metricRight = E;
unicode = 203;
},
{
glyphname = F;
lastChange = "2026-05-16 21:17:50 +0000";
layers = (
{
anchors = (
{
name = top;
pos = (332,686);
}
);
layerId = m01;
shapes = (
{
closed = 1;
nodes = (
(214,409,l),
(214,712,l),
(64,712,l),
(64,711,l),
(81,646,l),
(84,0,l),
(211,0,l),
(211,261,l),
(146,338,l),
(167,352,l),
(205,293,o),
(254,266,o),
(357,266,c),
(562,266,l),
(562,409,l)
);
},
{
closed = 1;
nodes = (
(152,589,l),
(612,589,l),
(612,712,l),
(152,712,l)
);
},
{
closed = 0;
nodes = (
(214,712,l)
);
}
);
width = 676;
}
);
metricLeft = E;
metricRight = E;
unicode = 70;
},
{
glyphname = G;
lastChange = "2026-05-23 20:25:23 +0000";
layers = (
{
anchors = (
{
name = top;
pos = (407,686);
}
);
layerId = m01;
shapes = (
{
closed = 1;
nodes = (
(734,501,l),
(719,648,o),
(599,736,o),
(421,736,cs),
(186,736,o),
(70,601,o),
(70,356,cs),
(70,77,o),
(186,-20,o),
(428,-20,cs),
(654,-20,o),
(743,87,o),
(743,288,cs),
(743,396,l),
(371,396,l),
(371,273,l),
(460,273,ls),
(567,273,o),
(618,280,o),
(658,339,c),
(680,325,l),
(612,248,l),
(585,123,o),
(513,96,o),
(419,96,cs),
(301,96,o),
(198,128,o),
(198,360,cs),
(198,388,o),
(200,414,o),
(203,437,cs),
(228,570,o),
(319,612,o),
(421,612,cs),
(514,612,o),
(569,561,o),
(586,501,c)
);
}
);
width = 813;
}
);
metricLeft = O;
metricRight = O;
unicode = 71;
},
{
glyphname = Gmacron;
lastChange = "2026-05-16 20:39:47 +0000";
layers = (
{
anchors = (
{
name = top;
pos = (384,686);
}
);
layerId = m01;
shapes = (
{
closed = 1;
nodes = (
(711,501,l),
(696,648,o),
(576,736,o),
(398,736,cs),
(175,736,o),
(41,601,o),
(41,356,cs),
(41,77,o),
(157,-20,o),
(399,-20,cs),
(625,-20,o),
(720,87,o),
(720,288,cs),
(720,396,l),
(348,396,l),
(348,273,l),
(437,273,ls),
(544,273,o),
(595,280,o),
(635,339,c),
(657,325,l),
(589,248,l),
(562,123,o),
(490,96,o),
(396,96,cs),
(278,96,o),
(175,128,o),
(175,360,cs),
(175,388,o),
(177,414,o),
(180,437,cs),
(205,570,o),
(296,612,o),
(398,612,cs),
(491,612,o),
(546,561,o),
(563,501,c)
);
},
{
pos = (158,185);
ref = macron;
}
);
width = 761;
}
);
unicode = 7712;
},
{
glyphname = H;
lastChange = "2026-05-16 21:00:40 +0000";
layers = (
{
anchors = (
{
name = top;
pos = (396,686);
}
);
layerId = m01;
shapes = (
{
closed = 1;
nodes = (
(211,0,l),
(211,261,l),
(146,338,l),
(167,352,l),
(205,293,o),
(254,266,o),
(357,266,cs),
(438,266,ls),
(541,266,o),
(590,293,o),
(628,352,c),
(649,338,l),
(584,261,l),
(584,0,l),
(713,0,l),
(713,712,l),
(581,712,l),
(581,409,l),
(214,409,l),
(214,712,l),
(64,712,l),
(64,711,l),
(81,646,l),
(84,0,l)
);
}
);
width = 777;
}
);
metricLeft = E;
metricRight = E;
unicode = 72;
},
{
glyphname = I;
lastChange = "2026-05-16 21:02:09 +0000";
layers = (
{
anchors = (
{
name = top;
pos = (122,686);
}
);
layerId = m01;
shapes = (
{
closed = 1;
nodes = (
(55,0,l),
(187,0,l),
(187,712,l),
(55,712,l)
);
}
);
width = 242;
}
);
unicode = 73;
},
{
glyphname = IJ;
lastChange = "2026-05-16 21:11:14 +0000";
layers = (
{
anchors = (
{
name = top;
pos = (429,686);
}
);
layerId = m01;
shapes = (
{
pos = (57,224);
ref = I;
scale = (1,0.6854);
},
{
closed = 1;
nodes = (
(399,-16,o),
(494,79,o),
(494,250,cs),
(494,712,l),
(359,712,l),
(359,273,ls),
(359,166,o),
(337,106,o),
(252,106,cs),
(203,106,o),
(153,133,o),
(125,163,c),
(55,73,l),
(101,21,o),
(173,-16,o),
(252,-16,cs)
);
}
);
width = 525;
}
);
metricLeft = I;
metricRight = J;
unicode = 306;
},
{
glyphname = Icircumflex;
lastChange = "2026-05-16 21:02:29 +0000";
layers = (
{
anchors = (
{
name = top;
pos = (-37,686);
}
);
layerId = m01;
shapes = (
{
closed = 1;
nodes = (
(149,0,l),
(281,0,l),
(281,712,l),
(149,712,l)
);
},
{
pos = (597,0);
ref = circumflex;
}
);
width = 436;
}
);
unicode = 206;
},
{
glyphname = Idieresis;
lastChange = "2026-05-16 21:02:46 +0000";
layers = (
{
hints = (
{
horizontal = 1;
place = (600,120);
type = Stem;
},
{
place = (494,120);
type = Stem;
},
{
place = (302,120);
type = Stem;
}
);
layerId = m01;
shapes = (
{
pos = (83,0);
ref = I;
},
{
closed = 1;
nodes = (
(335,782,o),
(362,809,o),
(362,843,cs),
(362,875,o),
(335,902,o),
(301,902,cs),
(268,902,o),
(242,875,o),
(242,843,cs),
(242,809,o),
(268,782,o),
(301,782,cs)
);
},
{
closed = 1;
nodes = (
(50,809,o),
(76,782,o),
(109,782,cs),
(143,782,o),
(170,809,o),
(170,843,cs),
(170,875,o),
(143,902,o),
(109,902,cs),
(76,902,o),
(50,875,o),
(50,843,cs)
);
}
);
width = 412;
}
);
metricLeft = i;
metricRight = i;
unicode = 207;
},
{
glyphname = Igrave;
lastChange = "2026-05-16 21:03:37 +0000";
layers = (
{
anchors = (
{
name = top;
pos = (69,686);
}
);
hints = (
{
horizontal = 1;
place = (766,150);
type = Stem;
},
{
place = (-52,241);
type = Stem;
}
);
layerId = m01;
shapes = (
{
closed = 1;
nodes = (
(2,0,l),
(134,0,l),
(134,712,l),
(2,712,l)
);
},
{
closed = 1;
nodes = (
(10,766,l),
(101,766,l),
(-11,916,l),
(-140,916,l)
);
}
);
width = 189;
}
);
metricRight = I;
unicode = 204;
},
{
glyphname = J;
lastChange = "2026-05-16 19:57:05 +0000";
layers = (
{
anchors = (
{
name = top;
pos = (384,686);
}
);
layerId = m01;
shapes = (
{
closed = 1;
nodes = (
(354,-16,o),
(449,79,o),
(449,250,cs),
(449,712,l),
(314,712,l),
(314,273,ls),
(314,166,o),
(292,106,o),
(207,106,cs),
(158,106,o),
(108,133,o),
(80,163,c),
(10,73,l),
(56,21,o),
(128,-16,o),
(207,-16,cs)
);
}
);
width = 480;
}
);
unicode = 74;
},
{
glyphname = K;
lastChange = "2026-05-16 21:11:14 +0000";
layers = (
{
anchors = (
{
name = top;
pos = (356,686);
}
);
layerId = m01;
shapes = (
{
closed = 1;
nodes = (
(210,0,l),
(209,305,l),
(378,305,ls),
(483,305,o),
(519,281,o),
(523,210,c),
(523,0,l),
(674,0,l),
(674,0,o),
(673,197,o),
(672,208,cs),
(662,310,o),
(604,355,o),
(461,355,c),
(461,372,l),
(555,372,o),
(633,408,o),
(633,517,cs),
(633,526,o),
(634,703,o),
(633,712,c),
(503,711,l),
(503,679,o),
(505,522,o),
(505,511,cs),
(505,432,o),
(477,405,o),
(367,405,cs),
(205,405,l),
(206,712,l),
(73,712,l),
(72,0,l)
);
},
{
closed = 1;
nodes = (
(131,648,l),
(132,712,l),
(52,712,l),
(74,648,l)
);
}
);
width = 719;
},
{
associatedMasterId = m01;
layerId = "191F45EB-2D82-4B33-914A-B8B1178D1EA9";
name = "20 Apr 26 at 21:59";
width = 704;
}
);
metricLeft = h;
metricRight = h;
unicode = 75;
},
{
glyphname = L;
lastChange = "2026-05-16 19:57:15 +0000";
layers = (
{
anchors = (
{
name = top;
pos = (305,686);
}
);
layerId = m01;
shapes = (
{
closed = 1;
nodes = (
(196,0,l),
(196,713,l),
(64,713,l),
(64,0,l)
);
},
{
closed = 1;
nodes = (
(131,648,l),
(131,713,l),
(52,713,l),
(74,648,l)
);
},
{
closed = 1;
nodes = (
(81,0,l),
(558,0,l),
(558,118,l),
(81,118,l)
);
}
);
width = 603;
}
);
metricLeft = h;
metricRight = n;
unicode = 76;
},
{
glyphname = M;
lastChange = "2026-05-16 21:11:14 +0000";
layers = (
{
anchors = (
{
name = top;
pos = (461,686);
}
);
layerId = m01;
shapes = (
{
closed = 1;
nodes = (
(201,0,l),
(197,268,ls),
(196,364,o),
(172,419,o),
(147,468,c),
(171,479,l),
(390,0,l),
(534,0,l),
(752,479,l),
(778,468,l),
(752,419,o),
(728,364,o),
(727,270,cs),
(723,0,l),
(855,0,l),
(855,649,l),
(855,712,l),
(723,712,l),
(443,96,l),
(481,96,l),
(201,712,l),
(52,712,l),
(69,649,l),
(69,0,l)
);
}
);
width = 900;
},
{
associatedMasterId = m01;
layerId = "C72D8CA0-B36A-49D7-A94D-C27D964B4B68";
name = "20 Apr 26 at 22:49";
width = 792;
}
);
metricLeft = n;
metricRight = n;
unicode = 77;
},
{
glyphname = N;
lastChange = "2026-05-16 21:09:11 +0000";
layers = (
{
anchors = (
{
name = top;
pos = (391,686);
}
);
layerId = m01;
shapes = (
{
closed = 1;
nodes = (
(219,0,l),
(219,330,ls),
(214,411,o),
(191,433,o),
(166,467,c),
(188,480,l),
(528,0,l),
(711,0,l),
(711,649,l),
(711,712,l),
(581,712,l),
(581,96,l),
(619,96,l),
(205,712,l),
(70,712,l),
(87,649,l),
(87,0,l)
);
}
);
width = 781;
}
);
unicode = 78;
},
{
glyphname = O;
lastChange = "2026-05-16 22:10:21 +0000";
layers = (
{
anchors = (
{
name = top;
pos = (413,686);
}
);
layerId = m01;
shapes = (
{
closed = 1;
nodes = (
(650,-20,o),
(784,77,o),
(784,356,cs),
(784,601,o),
(650,736,o),
(427,736,cs),
(205,736,o),
(70,601,o),
(70,356,cs),
(70,77,o),
(205,-20,o),
(427,-20,cs)
);
},
{
closed = 1;
nodes = (
(288,103,o),
(203,134,o),
(203,360,cs),
(203,546,o),
(307,613,o),
(427,613,cs),
(564,613,o),
(650,546,o),
(650,360,c),
(650,134,o),
(564,103,o),
(427,103,cs)
);
}
);
width = 854;
}
);
unicode = 79;
},
{
glyphname = Oacute;
lastChange = "2026-05-16 22:09:29 +0000";
layers = (
{
hints = (
{
horizontal = 1;
place = (766,150);
type = Stem;
},
{
place = (307,241);
type = Stem;
}
);
layerId = m01;
shapes = (
{
ref = O;
},
{
closed = 1;
nodes = (
(376,789,l),
(467,789,l),
(589,939,l),
(460,939,l)
);
}
);
width = 854;
}
);
metricLeft = O;
metricRight = O;
unicode = 211;
},
{
glyphname = Ocircumflex;
lastChange = "2026-05-16 22:09:35 +0000";
layers = (
{
hints = (
{
horizontal = 1;
place = (670,70);
type = Stem;
},
{
horizontal = 1;
place = (590,150);
type = Stem;
},
{
place = (876,366);
type = Stem;
}
);
layerId = m01;
shapes = (
{
ref = O;
},
{
closed = 1;
nodes = (
(247,798,l),
(350,798,l),
(430,878,l),
(510,798,l),
(613,798,l),
(473,948,l),
(387,948,l)
);
}
);
width = 854;
}
);
metricLeft = O;
metricRight = O;
unicode = 212;
},
{
glyphname = Odieresis;
lastChange = "2026-05-16 22:09:38 +0000";
layers = (
{
hints = (
{
horizontal = 1;
place = (600,120);
type = Stem;
},
{
place = (1068,120);
type = Stem;
},
{
place = (876,120);
type = Stem;
}
);
layerId = m01;
shapes = (
{
ref = O;
},
{
closed = 1;
nodes = (
(552,793,o),
(579,820,o),
(579,854,cs),
(579,886,o),
(552,913,o),
(518,913,cs),
(485,913,o),
(459,886,o),
(459,854,cs),
(459,820,o),
(485,793,o),
(518,793,cs)
);
},
{
closed = 1;
nodes = (
(267,820,o),
(293,793,o),
(326,793,cs),
(360,793,o),
(387,820,o),
(387,854,cs),
(387,886,o),
(360,913,o),
(326,913,cs),
(293,913,o),
(267,886,o),
(267,854,cs)
);
}
);
width = 854;
}
);
metricLeft = O;
metricRight = O;
unicode = 214;
},
{
glyphname = Otilde;
lastChange = "2026-05-16 22:10:01 +0000";
layers = (
{
hints = (
{
horizontal = 1;
place = (819,82);
type = Stem;
},
{
horizontal = 1;
place = (776,127);
type = Stem;
},
{
horizontal = 1;
place = (776,82);
type = Stem;
},
{
horizontal = 1;
place = (774,127);
type = Stem;
},
{
place = (473,78);
type = Stem;
},
{
place = (218,78);
type = Stem;
}
);
layerId = m01;
shapes = (
{
alignment = -1;
ref = O;
},
{
closed = 1;
nodes = (
(341,785,l),
(343,809,o),
(355,830,o),
(375,830,cs),
(399,830,o),
(438,787,o),
(488,787,cs),
(548,787,o),
(596,836,o),
(596,914,c),
(518,914,l),
(516,890,o),
(504,869,o),
(484,869,cs),
(460,869,o),
(421,912,o),
(371,912,cs),
(311,912,o),
(263,863,o),
(263,785,c)
);
}
);
width = 854;
}
);
metricLeft = O;
metricRight = O;
unicode = 213;
},
{
glyphname = P;
lastChange = "2026-05-16 19:58:05 +0000";
layers = (
{
anchors = (
{
name = top;
pos = (384,686);
}
);
layerId = m01;
shapes = (
{
closed = 1;
nodes = (
(203,0,l),
(202,212,l),
(419,212,l),
(580,212,o),
(651,313,o),
(651,451,cs),
(651,597,o),
(567,720,o),
(382,720,cs),
(337,720,o),
(245,705,o),
(194,643,cs),
(150,589,l),
(132,602,l),
(207,694,l),
(207,712,l),
(45,712,l),
(67,647,l),
(67,0,l)
);
},
{
closed = 1;
nodes = (
(198,328,l),
(198,462,ls),
(198,551,o),
(249,608,o),
(393,608,cs),
(512,608,o),
(519,486,o),
(519,456,cs),
(519,377,o),
(506,328,o),
(382,328,cs)
);
}
);
width = 692;
},
{
associatedMasterId = m01;
layerId = "C77CE421-30EC-418C-8A01-F123749ECD7F";
name = "5 May 26 at 15:56";
shapes = (
{
closed = 1;
nodes = (
(218,772,o),
(141,625,o),
(141,625,c),
(121,639,l),
(206,737,l),
(206,758,l),
(74,758,l),
(74,211,l),
(74,-1,l),
(206,-1,l),
(206,231,l),
(121,334,l),
(141,348,l),
(141,348,o),
(219,198,o),
(397,198,cs),
(595,198,o),
(683,335,o),
(683,492,cs),
(683,638,o),
(594,774,o),
(397,773,cs)
);
},
{
closed = 1;
nodes = (
(539,665,o),
(551,550,o),
(551,479,cs),
(551,422,o),
(539,306,o),
(386,306,cs),
(238,306,o),
(206,370,o),
(206,479,cs),
(206,599,o),
(238,665,o),
(386,665,cs)
);
},
{
closed = 1;
nodes = (
(52,758,l),
(74,693,l),
(133,697,l),
(133,758,l)
);
}
);
visible = 1;
width = 692;
}
);
metricLeft = "-h";
metricRight = o;
unicode = 80;
},
{
glyphname = Q;
lastChange = "2026-05-16 19:58:07 +0000";
layers = (
{
anchors = (
{
name = top;
pos = (384,686);
}
);
layerId = m01;
shapes = (
{
closed = 1;
nodes = (
(360,-152,o),
(407,-207,o),
(514,-223,cs),
(618,-239,o),
(698,-210,o),
(698,-210,c),
(698,-83,l),
(585,-102,ls),
(534,-111,o),
(489,-109,o),
(449,-76,cs),
(425,-56,o),
(424,-20,o),
(416,33,cs),
(413,52,l),
(360,52,l),
(360,-2,ls)
);
},
{
closed = 1;
nodes = (
(621,-20,o),
(755,77,o),
(755,356,cs),
(755,601,o),
(621,736,o),
(398,736,cs),
(176,736,o),
(41,601,o),
(41,356,cs),
(41,77,o),
(176,-20,o),
(398,-20,cs)
);
},
{
closed = 1;
nodes = (
(265,108,o),
(184,138,o),
(184,360,cs),
(184,542,o),
(283,608,o),
(398,608,cs),
(529,608,o),
(611,542,o),
(611,360,cs),
(611,138,o),
(529,108,o),
(398,108,cs)
);
},
{
closed = 0;
nodes = (
(444,63,l)
);
}
);
width = 796;
}
);
metricLeft = o;
metricRight = o;
unicode = 81;
},
{
glyphname = R;
lastChange = "2026-05-16 19:58:10 +0000";
layers = (
{
anchors = (
{
name = top;
pos = (384,686);
}
);
layerId = m01;
shapes = (
{
closed = 1;
nodes = (
(655,0,l),
(655,12,o),
(654,105,o),
(654,165,cs),
(654,270,o),
(605,311,o),
(477,311,c),
(477,328,l),
(590,328,o),
(658,367,o),
(658,515,cs),
(658,630,o),
(574,720,o),
(424,720,cs),
(344,720,o),
(241,692,o),
(201,643,cs),
(157,589,l),
(139,602,l),
(214,694,l),
(214,712,l),
(74,712,l),
(74,0,l)
);
},
{
closed = 1;
nodes = (
(209,0,l),
(209,261,l),
(231,261,o),
(350,261,o),
(398,261,cs),
(482,261,o),
(523,211,o),
(523,160,cs),
(523,157,o),
(523,30,o),
(523,0,c)
);
},
{
closed = 1;
nodes = (
(90,647,l),
(90,712,l),
(52,712,l),
(74,647,l)
);
},
{
closed = 1;
nodes = (
(205,371,l),
(205,484,ls),
(205,559,o),
(266,608,o),
(400,608,cs),
(495,608,o),
(526,551,o),
(526,503,cs),
(526,418,o),
(518,371,o),
(377,371,c)
);
},
{
closed = 1;
nodes = (
(638,65,l),
(638,0,l),
(676,0,l),
(654,65,l)
);
}
);
width = 721;
}
);
metricLeft = h;
metricRight = K;
unicode = 82;
},
{
glyphname = S;
lastChange = "2026-05-16 21:11:14 +0000";
layers = (
{
anchors = (
{
name = top;
pos = (353,686);
}
);
layerId = m01;
shapes = (
{
closed = 1;
nodes = (
(218,605,o),
(216,518,cs),
(215,471,o),
(250,454,o),
(392,422,cs),
(598,376,o),
(656,306,o),
(654,192,cs),
(652,83,o),
(562,-17,o),
(353,-13,cs),
(183,-10,o),
(52,95,o),
(52,95,c),
(151,195,l),
(151,195,o),
(248,125,o),
(339,115,cs),
(431,105,o),
(526,134,o),
(526,202,cs),
(526,239,o),
(476,277,o),
(328,315,cs),
(151,360,o),
(79,415,o),
(81,528,cs),
(82,603,o),
(172,724,o),
(383,721,cs),
(497,719,o),
(595,666,o),
(638,627,c),
(553,532,l),
(438,633,o)
);
}
);
width = 699;
}
);
metricLeft = h;
metricRight = h;
unicode = 83;
},
{
glyphname = Scaron;
lastChange = "2026-05-16 21:32:20 +0000";
layers = (
{
anchors = (
{
name = top;
pos = (353,686);
}
);
layerId = m01;
shapes = (
{
closed = 1;
nodes = (
(553,532,c),
(638,627,l),
(595,666,o),
(497,719,o),
(383,721,cs),
(172,724,o),
(82,603,o),
(81,528,cs),
(79,415,o),
(151,360,o),
(328,315,cs),
(476,277,o),
(526,239,o),
(526,202,cs),
(526,134,o),
(431,105,o),
(339,115,cs),
(248,125,o),
(151,195,o),
(151,195,c),
(52,95,l),
(52,95,o),
(183,-10,o),
(353,-13,cs),
(562,-17,o),
(652,83,o),
(654,192,cs),
(656,306,o),
(598,376,o),
(392,422,cs),
(250,454,o),
(215,471,o),
(216,518,cs),
(218,605,o),
(438,633,o)
);
},
{
pos = (97,179);
ref = caron;
}
);
width = 699;
}
);
metricLeft = S;
metricRight = S;
unicode = 352;
},
{
glyphname = T;
lastChange = "2026-05-16 19:58:22 +0000";
layers = (
{
anchors = (
{
name = top;
pos = (282,686);
}
);
layerId = m01;
shapes = (
{
closed = 1;
nodes = (
(214,0,l),
(346,0,l),
(346,589,l),
(561,589,l),
(561,712,l),
(-1,712,l),
(-1,589,l),
(214,589,l)
);
}
);
width = 560;
}
);
unicode = 84;
},
{
glyphname = U;
lastChange = "2026-05-16 21:18:48 +0000";
layers = (
{
anchors = (
{
name = top;
pos = (402,686);
}
);
layerId = m01;
shapes = (
{
closed = 1;
nodes = (
(588,712,l),
(588,710,o),
(588,295,o),
(588,294,c),
(588,131,o),
(517,101,o),
(406,101,cs),
(293,101,o),
(223,131,o),
(223,294,cs),
(223,295,o),
(223,710,o),
(223,712,c),
(92,712,l),
(92,709,o),
(92,262,o),
(92,260,cs),
(92,52,o),
(211,-20,o),
(406,-20,cs),
(602,-20,o),
(720,52,o),
(720,260,cs),
(720,262,o),
(720,709,o),
(720,712,c)
);
},
{
closed = 1;
nodes = (
(108,647,l),
(108,712,l),
(70,712,l),
(92,647,l)
);
}
);
width = 790;
}
);
metricLeft = O;
metricRight = O;
unicode = 85;
},
{
glyphname = V;
lastChange = "2026-05-16 19:58:40 +0000";
layers = (
{
anchors = (
{
name = top;
pos = (401,686);
}
);
layerId = m01;
shapes = (
{
closed = 1;
nodes = (
(341,0,l),
(458,0,l),
(779,712,l),
(633,712,l),
(384,116,l),
(418,116,l),
(171,712,l),
(22,712,l)
);
}
);
width = 801;
}
);
unicode = 86;
},
{
glyphname = W;
lastChange = "2026-05-16 21:16:10 +0000";
layers = (
{
anchors = (
{
name = top;
pos = (544,686);
}
);
layerId = m01;
shapes = (
{
closed = 1;
nodes = (
(225,0,l),
(404,0,l),
(557,499,l),
(531,499,l),
(683,0,l),
(862,0,l),
(1066,712,l),
(928,712,l),
(784,170,l),
(798,111,l),
(776,108,l),
(765,149,l),
(595,712,l),
(495,712,l),
(330,170,l),
(344,111,l),
(322,108,l),
(311,149,l),
(162,712,l),
(23,712,l)
);
},
{
closed = 0;
nodes = (
(784,170,l),
(798,111,l),
(776,108,l),
(765,149,l)
);
}
);
width = 1089;
}
);
unicode = 87;
},
{
glyphname = Wcircumflex;
lastChange = "2026-05-19 19:43:46 +0000";
layers = (
{
hints = (
{
horizontal = 1;
place = (670,70);
type = Stem;
},
{
horizontal = 1;
place = (590,150);
type = Stem;
},
{
place = (1169,366);
type = Stem;
}
);
layerId = m01;
shapes = (
{
ref = W;
},
{
closed = 1;
nodes = (
(364,772,l),
(467,772,l),
(547,852,l),
(627,772,l),
(730,772,l),
(590,922,l),
(504,922,l)
);
}
);
width = 1089;
}
);
metricRight = W;
unicode = 372;
},
{
glyphname = X;
lastChange = "2026-05-16 19:59:00 +0000";
layers = (
{
anchors = (
{
name = top;
pos = (248,686);
}
);
layerId = m01;
shapes = (
{
closed = 1;
nodes = (
(-105,-1,l),
(46,0,l),
(243,288,l),
(444,0,l),
(597,-1,l),
(344,363,l),
(587,712,l),
(436,711,l),
(251,444,l),
(67,711,l),
(-90,712,l),
(149,369,l)
);
}
);
width = 480;
}
);
unicode = 88;
},
{
glyphname = Y;
lastChange = "2026-05-16 19:59:10 +0000";
layers = (
{
anchors = (
{
name = top;
pos = (374,686);
}
);
layerId = m01;
shapes = (
{
closed = 1;
nodes = (
(308,0,l),
(441,0,l),
(448,268,l),
(722,712,l),
(573,712,l),
(351,343,l),
(397,344,l),
(174,712,l),
(22,712,l),
(302,268,l)
);
}
);
width = 744;
}
);
unicode = 89;
},
{
glyphname = Ydieresis;
lastChange = "2026-05-16 21:10:40 +0000";
layers = (
{
hints = (
{
horizontal = 1;
place = (600,120);
type = Stem;
},
{
place = (1016,120);
type = Stem;
},
{
place = (824,120);
type = Stem;
}
);
layerId = m01;
shapes = (
{
ref = Y;
},
{
closed = 1;
nodes = (
(502,782,o),
(529,809,o),
(529,843,cs),
(529,875,o),
(502,902,o),
(468,902,cs),
(435,902,o),
(409,875,o),
(409,843,cs),
(409,809,o),
(435,782,o),
(468,782,cs)
);
},
{
closed = 1;
nodes = (
(217,809,o),
(243,782,o),
(276,782,cs),
(310,782,o),
(337,809,o),
(337,843,cs),
(337,875,o),
(310,902,o),
(276,902,cs),
(243,902,o),
(217,875,o),
(217,843,cs)
);
}
);
width = 744;
}
);
metricLeft = Y;
metricRight = Y;
unicode = 376;
},
{
glyphname = Z;
lastChange = "2026-05-16 19:59:18 +0000";
layers = (
{
anchors = (
{
name = top;
pos = (339,686);
}
);
layerId = m01;
shapes = (
{
closed = 1;
nodes = (
(22,0,l),
(624,0,l),
(624,123,l),
(199,124,l),
(621,589,l),
(621,712,l),
(32,712,l),
(32,589,l),
(443,589,l),
(22,123,l)
);
}
);
width = 646;
}
);
unicode = 90;
},
{
glyphname = R.001;
lastChange = "2026-04-21 03:27:03 +0000";
layers = (
{
layerId = m01;
shapes = (
{
closed = 1;
nodes = (
(210,0,l),
(209,261,l),
(308,261,ls),
(452,261,o),
(503,115,o),
(519,0,c),
(666,1,l),
(648,160,o),
(565,272,o),
(465,319,c),
(465,328,l),
(590,328,o),
(658,367,o),
(658,515,cs),
(658,630,o),
(574,720,o),
(424,720,cs),
(344,720,o),
(241,692,o),
(201,643,cs),
(157,589,l),
(139,602,l),
(214,694,l),
(214,712,l),
(52,712,l),
(74,647,l),
(74,0,l)
);
},
{
closed = 1;
nodes = (
(205,371,l),
(205,484,ls),
(205,559,o),
(266,608,o),
(400,608,cs),
(495,608,o),
(526,551,o),
(526,503,cs),
(526,418,o),
(518,371,o),
(377,371,cs)
);
}
);
width = 711;
}
);
metricLeft = h;
metricRight = K;
},
{
glyphname = a;
lastChange = "2026-05-23 20:28:17 +0000";
layers = (
{
associatedMasterId = m01;
layerId = "392FD3C8-0880-4A88-9F9A-5EE0EF2F91C5";
name = "22 Apr 26 at 19:30";
shapes = (
{
closed = 1;
nodes = (
(453,-15,o),
(530,137,o),
(530,137,c),
(552,120,l),
(467,17,l),
(467,0,l),
(599,0,l),
(599,269,ls),
(599,408,o),
(545,538,o),
(318,538,cs),
(188,538,o),
(106,485,o),
(62,413,c),
(183,362,l),
(207,402,o),
(259,429,o),
(327,429,cs),
(393,429,o),
(449,396,o),
(456,348,cs),
(459,327,o),
(454,318,o),
(433,315,cs),
(399,311,o),
(342,311,o),
(273,315,cs),
(55,329,o),
(41,190,o),
(41,148,cs),
(41,106,o),
(58,-15,o),
(274,-15,cs)
);
},
{
closed = 1;
nodes = (
(239,87,o),
(173,94,o),
(173,155,cs),
(173,214,o),
(239,223,o),
(298,219,cs),
(376,214,o),
(399,200,o),
(435,216,cs),
(451,223,o),
(470,241,o),
(488,270,c),
(505,260,ls),
(505,260,o),
(437,87,o),
(298,87,cs)
);
},
{
closed = 1;
nodes = (
(621,0,l),
(599,65,l),
(540,65,l),
(540,0,l)
);
}
);
width = 626;
},
{
anchors = (
{
name = top;
pos = (322,518);
}
);
associatedMasterId = m01;
background = {
shapes = (
{
pos = (-36,0);
ref = n;
}
);
};
layerId = "385A1189-ADFA-4076-B843-51E53F39F5FE";
name = "23 May 26 at 16:28";
shapes = (
{
closed = 1;
nodes = (
(113,122,l),
(207,122,l),
(207,370,l),
(405,370,l),
(405,469,l),
(207,469,l),
(207,471,l),
(113,471,l)
);
}
);
visible = 1;
width = 636;
},
{
anchors = (
{
name = top;
pos = (322,518);
}
);
background = {
shapes = (
{
pos = (-36,0);
ref = n;
}
);
};
layerId = m01;
name = Regular;
shapes = (
{
closed = 1;
nodes = (
(418,-15,o),
(499,99,o),
(501,98,c),
(516,84,l),
(467,27,l),
(467,0,l),
(599,0,l),
(599,269,ls),
(599,404,o),
(511,537,o),
(323,536,cs),
(212,535,o),
(100,487,o),
(62,411,c),
(183,362,l),
(211,408,o),
(270,430,o),
(325,430,cs),
(393,430,o),
(457,397,o),
(457,338,cs),
(457,318,o),
(437,312,o),
(373,312,cs),
(318,312,o),
(291,316,o),
(243,316,cs),
(116,316,o),
(41,254,o),
(41,148,cs),
(41,106,o),
(58,-15,o),
(274,-15,cs)
);
},
{
closed = 1;
nodes = (
(239,87,o),
(173,94,o),
(173,155,cs),
(173,206,o),
(223,220,o),
(275,220,cs),
(304,220,o),
(328,217,o),
(349,214,cs),
(366,211,o),
(383,209,o),
(400,209,cs),
(442,209,o),
(466,235,o),
(488,270,c),
(505,260,ls),
(505,260,o),
(437,87,o),
(298,87,cs)
);
},
{
closed = 1;
nodes = (
(621,0,l),
(599,65,l),
(540,65,l),
(540,0,l)
);
}
);
visible = 1;
width = 636;
}
);
metricLeft = o;
unicode = 97;
},
{
glyphname = acircumflex;
lastChange = "2026-05-16 20:55:23 +0000";
layers = (
{
anchors = (
{
name = top;
pos = (322,518);
}
);
layerId = m01;
shapes = (
{
closed = 1;
nodes = (
(418,-15,o),
(499,99,o),
(501,98,c),
(516,84,l),
(467,27,l),
(467,0,l),
(599,0,l),
(599,269,ls),
(599,404,o),
(511,537,o),
(323,536,cs),
(212,535,o),
(100,487,o),
(62,411,c),
(183,362,l),
(211,408,o),
(270,430,o),
(325,430,cs),
(393,430,o),
(457,397,o),
(457,338,cs),
(457,318,o),
(437,312,o),
(373,312,cs),
(318,312,o),
(291,316,o),
(243,316,cs),
(116,316,o),
(41,254,o),
(41,148,cs),
(41,106,o),
(58,-15,o),
(274,-15,cs)
);
},
{
closed = 1;
nodes = (
(239,87,o),
(173,94,o),
(173,155,cs),
(173,206,o),
(223,220,o),
(275,220,cs),
(304,220,o),
(328,217,o),
(349,214,cs),
(366,211,o),
(383,209,o),
(400,209,cs),
(442,209,o),
(466,235,o),
(488,270,c),
(505,260,ls),
(505,260,o),
(437,87,o),
(298,87,cs)
);
},
{
closed = 1;
nodes = (
(621,0,l),
(599,65,l),
(540,65,l),
(540,0,l)
);
},
{
pos = (702,-170);
ref = circumflex;
}
);
width = 636;
}
);
metricLeft = a;
metricRight = a;
unicode = 226;
},
{
glyphname = adieresis;
lastChange = "2026-05-16 20:56:09 +0000";
layers = (
{
hints = (
{
horizontal = 1;
place = (600,120);
type = Stem;
},
{
place = (898,120);
type = Stem;
},
{
place = (706,120);
type = Stem;
}
);
layerId = m01;
shapes = (
{
locked = 1;
ref = a;
},
{
closed = 1;
nodes = (
(458,600,o),
(485,627,o),
(485,661,cs),
(485,693,o),
(458,720,o),
(424,720,cs),
(391,720,o),
(365,693,o),
(365,661,cs),
(365,627,o),
(391,600,o),
(424,600,cs)
);
},
{
closed = 1;
nodes = (
(173,627,o),
(199,600,o),
(232,600,cs),
(266,600,o),
(293,627,o),
(293,661,cs),
(293,693,o),
(266,720,o),
(232,720,cs),
(199,720,o),
(173,693,o),
(173,661,cs)
);
}
);
width = 636;
}
);
locked = 1;
metricLeft = a;
metricRight = a;
unicode = 228;
},
{
glyphname = aring;
lastChange = "2026-05-16 21:11:48 +0000";
layers = (
{
hints = (
{
horizontal = 1;
place = (727,57);
type = Stem;
},
{
horizontal = 1;
place = (568,57);
type = Stem;
},
{
place = (872,62);
type = Stem;
},
{
place = (706,62);
type = Stem;
}
);
layerId = m01;
shapes = (
{
ref = a;
},
{
closed = 1;
nodes = (
(394,583,o),
(445,630,o),
(445,693,cs),
(445,753,o),
(394,799,o),
(332,799,cs),
(268,799,o),
(217,753,o),
(217,693,cs),
(217,630,o),
(268,583,o),
(332,583,cs)
);
},
{
closed = 1;
nodes = (
(279,720,o),
(303,742,o),
(332,742,cs),
(361,742,o),
(383,720,o),
(383,693,cs),
(383,665,o),
(361,640,o),
(332,640,cs),
(303,640,o),
(279,665,o),
(279,693,cs)
);
}
);
width = 636;
}
);
metricRight = a;
unicode = 229;
},
{
glyphname = b;
lastChange = "2026-05-16 19:59:39 +0000";
layers = (
{
associatedMasterId = m01;
layerId = "F15809D0-3F76-4EC0-8297-525DC48B90B7";
name = "17 Mar 26 at 22:37";
shapes = (
{
closed = 1;
nodes = (
(214,0,l),
(231,18,l),
(230,19,l),
(189,66,l),
(188,69,l),
(187,69,l),
(123,144,l),
(122,144,l),
(139,159,l),
(153,171,l),
(206,99,l),
(402,-113,o),
(790,-16,o),
(790,329,cs),
(790,447,o),
(725,663,o),
(430,663,cs),
(295,653,o),
(230,585,o),
(183,512,cs),
(159,471,l),
(128,492,l),
(214,617,l),
(214,1000,l),
(49,1000,l),
(50,168,l),
(49,1,l),
(49,0,l)
);
},
{
closed = 1;
nodes = (
(266,175,o),
(242,210,o),
(236,251,c),
(236,394,l),
(242,435,o),
(266,470,o),
(300,489,cs),
(437,567,o),
(634,555,o),
(634,329,cs),
(634,102,o),
(437,78,o),
(300,156,cs)
);
}
);
width = 811;
},
{
layerId = m01;
name = Regular;
shapes = (
{
closed = 1;
nodes = (
(565,-12,o),
(654,124,o),
(654,260,cs),
(654,395,o),
(566,533,o),
(397,533,cs),
(219,533,o),
(141,382,o),
(141,382,c),
(121,399,l),
(206,503,l),
(206,764,l),
(74,764,l),
(74,520,l),
(74,0,l),
(206,0,l),
(206,17,l),
(121,120,l),
(141,137,l),
(141,137,o),
(218,-10,o),
(397,-11,cs)
);
},
{
closed = 1;
nodes = (
(490,425,o),
(522,358,o),
(522,260,cs),
(522,161,o),
(490,97,o),
(371,97,cs),
(218,97,o),
(206,213,o),
(206,260,cs),
(206,310,o),
(218,425,o),
(371,425,cs)
);
},
{
closed = 1;
nodes = (
(133,65,l),
(74,65,l),
(52,0,l),
(133,0,l)
);
},
{
closed = 1;
nodes = (
(131,764,l),
(52,764,l),
(74,699,l),
(131,699,l)
);
}
);
visible = 1;
width = 695;
},
{
anchors = (
{
name = "new anchor";
pos = (246,275);
}
);
associatedMasterId = m01;
background = {
shapes = (
{
closed = 0;
nodes = (
(807,331,l),
(807,331,o),
(797,-4,o),
(474,-1,cs),
(264,1,o),
(205,124,o),
(157,190,c),
(131,168,l),
(239,21,l),
(223,3,l),
(56,3,l),
(56,1004,l),
(226,1004,l),
(226,618,l),
(133,487,l),
(157,469,l),
(205,535,o),
(264,658,o),
(474,660,cs),
(797,663,o),
(807,331,o),
(807,331,cs)
);
}
);
};
layerId = "0DD91497-9A9B-4BF7-9791-9DA80F743F29";
name = "19 Mar 26 at 20:03";
shapes = (
{
closed = 1;
nodes = (
(629,-13,o),
(725,171,o),
(725,171,c),
(753,148,l),
(663,33,l),
(663,0,l),
(831,0,l),
(831,1000,l),
(663,1000,l),
(663,618,l),
(753,501,l),
(725,478,l),
(725,478,o),
(627,663,o),
(405,663,cs),
(194,663,o),
(83,495,o),
(84,326,cs),
(85,156,o),
(195,-15,o),
(405,-14,cs)
);
},
{
closed = 1;
nodes = (
(652,531,o),
(643,379,o),
(643,326,cs),
(643,276,o),
(652,122,o),
(427,122,cs),
(299,122,o),
(242,221,o),
(243,326,cs),
(242,430,o),
(299,531,o),
(427,531,cs)
);
},
{
closed = 1;
nodes = (
(859,0,l),
(831,81,l),
(760,81,l),
(760,0,l)
);
}
);
width = 835;
}
);
metricLeft = h;
metricRight = o;
unicode = 98;
},
{
glyphname = c;
lastChange = "2026-05-16 21:36:40 +0000";
layers = (
{
associatedMasterId = m01;
layerId = "D7983CBE-39A3-46D3-9777-A88CB55CBFF0";
name = "17 Mar 26 at 22:51";
shapes = (
{
closed = 1;
nodes = (
(383,-13,ls),
(502,-12,o),
(605,27,o),
(662,89,c),
(555,182,l),
(523,136,o),
(477,104,o),
(373,104,cs),
(220,104,o),
(187,221,o),
(187,326,cs),
(187,431,o),
(221,546,o),
(373,546,cs),
(452,546,o),
(512,514,o),
(544,469,c),
(651,563,l),
(594,624,o),
(501,662,o),
(383,663,cs),
(368,663,ls),
(132,662,o),
(24,509,o),
(24,326,cs),
(24,142,o),
(131,-12,o),
(368,-13,cs)
);
}
);
width = 677;
},
{
anchors = (
{
name = top;
pos = (322,518);
}
);
layerId = m01;
name = Regular;
shapes = (
{
closed = 1;
nodes = (
(173,352,o),
(230,434,o),
(337,434,cs),
(405,434,o),
(447,398,o),
(474,360,c),
(590,421,l),
(546,492,o),
(467,538,o),
(338,538,cs),
(127,538,o),
(41,398,o),
(41,260,cs),
(41,122,o),
(127,-18,o),
(338,-18,cs),
(467,-18,o),
(548,32,o),
(592,103,c),
(473,156,l),
(448,117,o),
(404,88,o),
(337,86,cs),
(230,86,o),
(173,168,o),
(173,260,cs)
);
}
);
visible = 1;
width = 633;
},
{
associatedMasterId = m01;
layerId = "D1E53353-869E-4E28-A323-577B9FD18A19";
name = "20 Mar 26 at 13:32";
shapes = (
{
closed = 0;
nodes = (
(600,618,l),
(690,501,l),
(662,478,l),
(662,478,o),
(564,663,o),
(342,663,cs),
(131,663,o),
(20,495,o),
(21,326,cs),
(22,156,o),
(132,-15,o),
(342,-14,cs),
(566,-13,o),
(662,171,o),
(662,171,c),
(690,148,l),
(600,33,l),
(600,0,l),
(770,0,l)
);
},
{
closed = 1;
nodes = (
(589,531,o),
(580,379,o),
(580,326,cs),
(580,276,o),
(589,122,o),
(364,122,cs),
(236,122,o),
(179,221,o),
(180,326,cs),
(179,430,o),
(236,531,o),
(364,531,cs)
);
},
{
closed = 1;
nodes = (
(798,0,l),
(770,81,l),
(697,81,l),
(697,0,l)
);
}
);
width = 704;
}
);
metricLeft = o;
metricRight = o;
unicode = 99;
},
{
glyphname = d;
lastChange = "2026-05-16 21:20:31 +0000";
layers = (
{
associatedMasterId = m01;
layerId = "C51F2D5E-DF0E-4015-915E-9EE2FA8A22C0";
name = "19 Mar 26 at 20:08";
shapes = (
{
closed = 1;
nodes = (
(590,-14,o),
(644,123,o),
(692,171,c),
(723,148,l),
(661,76,ls),
(637,48,o),
(627,25,o),
(627,0,c),
(822,0,l),
(794,81,l),
(794,872,ls),
(794,906,o),
(798,932,o),
(809,964,cs),
(822,1000,l),
(647,1000,l),
(637,964,ls),
(628,932,o),
(624,907,o),
(624,873,cs),
(624,670,ls),
(624,633,o),
(633,606,o),
(656,577,cs),
(717,501,l),
(689,478,l),
(641,526,o),
(588,663,o),
(365,663,cs),
(155,663,o),
(46,495,o),
(45,326,cs),
(46,156,o),
(156,-14,o),
(367,-14,cs)
);
},
{
closed = 1;
nodes = (
(613,531,o),
(604,379,o),
(604,326,cs),
(604,276,o),
(613,122,o),
(388,122,cs),
(260,122,o),
(203,221,o),
(204,326,cs),
(203,430,o),
(260,531,o),
(388,531,cs)
);
}
);
width = 867;
},
{
associatedMasterId = m01;
layerId = "CB3F84CE-14AD-4FBD-B3B8-D63A301B5E51";
name = "19 Mar 26 at 20:08";
shapes = (
{
closed = 1;
nodes = (
(590,-14,o),
(644,123,o),
(692,171,c),
(723,148,l),
(661,76,ls),
(637,48,o),
(627,25,o),
(627,0,c),
(794,0,l),
(781,36,ls),
(770,68,o),
(766,94,o),
(766,128,cs),
(766,872,ls),
(766,906,o),
(770,932,o),
(781,964,cs),
(794,1000,l),
(596,1000,l),
(609,964,ls),
(620,932,o),
(624,906,o),
(624,872,cs),
(624,670,ls),
(624,633,o),
(633,606,o),
(656,577,cs),
(717,501,l),
(689,478,l),
(641,526,o),
(588,663,o),
(365,663,cs),
(155,663,o),
(46,495,o),
(45,326,cs),
(46,156,o),
(156,-14,o),
(367,-14,cs)
);
},
{
closed = 1;
nodes = (
(260,122,o),
(203,221,o),
(204,326,cs),
(203,430,o),
(260,531,o),
(388,531,cs),
(613,531,o),
(604,371,o),
(604,326,cs),
(604,281,o),
(613,122,o),
(388,122,cs)
);
}
);
width = 867;
},
{
associatedMasterId = m01;
layerId = "AAB16155-3F0F-4BBC-988B-F44FB3F0ACE3";
name = "24 Mar 26 at 18:07";
shapes = (
{
closed = 1;
nodes = (
(590,-14,o),
(644,123,o),
(692,171,c),
(723,148,l),
(627,36,l),
(627,0,l),
(794,0,l),
(794,1000,l),
(624,1000,l),
(624,618,l),
(717,501,l),
(689,478,l),
(641,526,o),
(588,663,o),
(365,663,cs),
(155,663,o),
(46,495,o),
(45,326,cs),
(46,156,o),
(156,-14,o),
(367,-14,cs)
);
},
{
closed = 1;
nodes = (
(260,122,o),
(203,221,o),
(204,326,cs),
(203,430,o),
(260,531,o),
(388,531,cs),
(613,531,o),
(604,371,o),
(604,326,cs),
(604,281,o),
(613,122,o),
(388,122,cs)
);
},
{
closed = 1;
nodes = (
(822,0,l),
(794,81,l),
(723,81,l),
(723,0,l)
);
},
{
closed = 1;
nodes = (
(794,919,l),
(822,1000,l),
(723,1000,l),
(723,919,l)
);
},
{
closed = 1;
nodes = (
);
}
);
width = 875;
},
{
layerId = m01;
name = Regular;
shapes = (
{
closed = 1;
nodes = (
);
},
{
closed = 1;
nodes = (
(477,-10,o),
(554,137,o),
(554,137,c),
(574,120,l),
(488,17,l),
(488,0,l),
(620,0,l),
(620,520,l),
(620,764,l),
(488,764,l),
(488,505,l),
(574,399,l),
(554,382,l),
(554,382,o),
(476,533,o),
(298,533,cs),
(129,533,o),
(41,395,o),
(41,260,cs),
(41,124,o),
(130,-12,o),
(298,-11,cs)
);
},
{
closed = 1;
nodes = (
(476,425,o),
(488,310,o),
(488,260,cs),
(488,213,o),
(476,97,o),
(324,97,cs),
(205,97,o),
(173,161,o),
(173,260,cs),
(173,358,o),
(205,425,o),
(324,425,cs)
);
},
{
closed = 1;
nodes = (
(643,0,l),
(620,65,l),
(562,65,l),
(562,0,l)
);
},
{
closed = 1;
nodes = (
(545,764,l),
(466,764,l),
(488,699,l),
(545,699,l)
);
}
);
width = 695;
}
);
metricLeft = o;
metricRight = "=|h";
unicode = 100;
},
{
glyphname = e;
lastChange = "2026-05-16 20:00:25 +0000";
layers = (
{
associatedMasterId = m01;
background = {
shapes = (
{
closed = 0;
nodes = (
(598,263,l)
);
},
{
closed = 0;
nodes = (
(770,263,l)
);
}
);
};
layerId = "455E7E10-EA24-4485-B0B7-DFCB287AFBDB";
name = "5 Apr 26 at 12:25";
shapes = (
{
closed = 1;
nodes = (
(351,95,l),
(270,95,o),
(196,160,o),
(118,258,c),
(140,277,l),
(165,246,ls),
(184,223,o),
(206,211,o),
(238,211,cs),
(629,211,l),
(656,394,o),
(540,530,o),
(351,530,cs),
(127,530,o),
(51,374,o),
(51,262,cs),
(51,149,o),
(154,-10,o),
(351,-10,cs),
(479,-10,o),
(562,34,o),
(609,98,c),
(514,146,l),
(480,118,o),
(430,95,o),
(351,95,cs)
);
},
{
closed = 1;
nodes = (
(210,387,o),
(257,428,o),
(351,428,cs),
(447,428,o),
(474,374,o),
(489,308,c),
(208,308,ls),
(192,308,o),
(183,318,o),
(190,334,cs)
);
}
);
width = 685;
},
{
anchors = (
{
name = top;
pos = (322,518);
}
);
background = {
shapes = (
{
closed = 0;
nodes = (
(587,263,l)
);
},
{
closed = 0;
nodes = (
(759,263,l)
);
}
);
};
layerId = m01;
name = Regular;
shapes = (
{
closed = 1;
nodes = (
(599,213,l),
(599,355,o),
(569,529,o),
(320,529,cs),
(84,529,o),
(41,359,o),
(41,255,cs),
(41,174,o),
(75,-12,o),
(330,-12,cs),
(522,-12,o),
(587,110,o),
(587,110,c),
(473,159,l),
(473,159,o),
(437,93,o),
(330,93,cs),
(178,93,o),
(168,213,o),
(168,213,c)
);
},
{
closed = 1;
nodes = (
(410,425,o),
(471,376,o),
(471,313,c),
(168,313,l),
(168,376,o),
(234,425,o),
(320,425,c)
);
}
);
width = 640;
}
);
metricLeft = o;
metricRight = o;
unicode = 101;
},
{
glyphname = ecircumflex;
lastChange = "2026-05-16 21:11:40 +0000";
layers = (
{
anchors = (
{
name = top;
pos = (317,518);
}
);
layerId = m01;
shapes = (
{
closed = 1;
nodes = (
(594,213,l),
(594,355,o),
(564,529,o),
(315,529,cs),
(79,529,o),
(36,359,o),
(36,255,cs),
(36,174,o),
(70,-12,o),
(325,-12,cs),
(517,-12,o),
(582,110,o),
(582,110,c),
(468,159,l),
(468,159,o),
(432,93,o),
(325,93,cs),
(173,93,o),
(163,213,o),
(163,213,c)
);
},
{
closed = 1;
nodes = (
(405,425,o),
(466,376,o),
(466,313,c),
(163,313,l),
(163,376,o),
(229,425,o),
(315,425,c)
);
},
{
alignment = -1;
pos = (694,-181);
ref = circumflex;
}
);
width = 630;
}
);
metricLeft = w;
metricRight = w;
unicode = 234;
},
{
glyphname = edieresis;
lastChange = "2026-05-16 20:44:01 +0000";
layers = (
{
hints = (
{
horizontal = 1;
place = (600,120);
type = Stem;
},
{
place = (912,120);
type = Stem;
},
{
place = (720,120);
type = Stem;
}
);
layerId = m01;
shapes = (
{
ref = e;
},
{
closed = 1;
nodes = (
(453,599,o),
(480,626,o),
(480,660,cs),
(480,692,o),
(453,719,o),
(419,719,cs),
(386,719,o),
(360,692,o),
(360,660,cs),
(360,626,o),
(386,599,o),
(419,599,cs)
);
},
{
closed = 1;
nodes = (
(168,626,o),
(194,599,o),
(227,599,cs),
(261,599,o),
(288,626,o),
(288,660,cs),
(288,692,o),
(261,719,o),
(227,719,cs),
(194,719,o),
(168,692,o),
(168,660,cs)
);
}
);
width = 640;
}
);
metricLeft = e;
metricRight = e;
unicode = 235;
},
{
glyphname = f;
lastChange = "2026-05-05 19:51:57 +0000";
layers = (
{
layerId = m01;
shapes = (
{
closed = 0;
nodes = (
(188,0,l)
);
},
{
closed = 1;
nodes = (
(456,758,l),
(363,796,o),
(259,804,o),
(191,736,cs),
(145,690,o),
(128,629,o),
(128,498,cs),
(128,0,l),
(260,0,l),
(259,498,ls),
(259,693,o),
(355,664,o),
(431,640,c)
);
},
{
closed = 1;
nodes = (
(52,402,l),
(377,402,l),
(377,513,l),
(52,513,l)
);
}
);
width = 497;
}
);
metricLeft = n;
metricRight = o;
unicode = 102;
},
{
glyphname = g;
lastChange = "2026-05-16 20:00:20 +0000";
layers = (
{
associatedMasterId = m01;
layerId = "AC6E66AA-4E9A-4212-9883-F3F6B7DB27A4";
name = "19 Mar 26 at 20:25";
shapes = (
{
closed = 1;
nodes = (
(604,-130,o),
(501,-172,o),
(413,-172,cs),
(294,-172,o),
(254,-140,o),
(233,-87,c),
(54,-136,l),
(145,-253,o),
(262,-301,o),
(404,-301,cs),
(601,-301,o),
(748,-188,o),
(748,0,c),
(747,481,l),
(747,566,l),
(775,649,l),
(593,649,l),
(576,631,l),
(576,630,l),
(685,505,l),
(684,505,l),
(668,490,l),
(653,478,l),
(601,551,ls),
(542,634,o),
(447,662,o),
(357,662,cs),
(180,662,o),
(28,532,o),
(28,311,cs),
(28,75,o),
(186,-12,o),
(363,-12,cs),
(496,-12,o),
(581,61,o),
(624,136,cs),
(648,178,l),
(678,157,l),
(604,32,l),
(604,-21,l)
);
},
{
closed = 1;
nodes = (
(255,113,o),
(175,158,o),
(175,311,cs),
(175,464,o),
(255,529,o),
(351,529,cs),
(403,529,o),
(459,514,o),
(507,487,cs),
(541,468,o),
(564,433,o),
(570,392,c),
(570,249,l),
(564,208,o),
(541,173,o),
(507,154,cs),
(459,127,o),
(403,113,o),
(351,113,cs)
);
}
);
width = 799;
},
{
anchors = (
{
name = top;
pos = (322,518);
}
);
layerId = m01;
name = Regular;
shapes = (
{
closed = 1;
nodes = (
(60,-80,l),
(81,-152,o),
(178,-239,o),
(322,-239,cs),
(579,-239,o),
(620,-73,o),
(620,0,cs),
(620,22,l),
(488,17,l),
(488,14,ls),
(488,-82,o),
(426,-134,o),
(325,-134,cs),
(253,-134,o),
(204,-103,o),
(182,-54,c)
);
},
{
closed = 1;
nodes = (
(477,-10,o),
(554,137,o),
(554,137,c),
(574,120,l),
(488,17,l),
(488,0,l),
(620,0,l),
(620,518,l),
(488,518,l),
(488,503,l),
(574,399,l),
(554,382,l),
(554,382,o),
(476,533,o),
(298,533,cs),
(129,533,o),
(41,395,o),
(41,260,cs),
(41,124,o),
(130,-12,o),
(298,-11,cs)
);
},
{
closed = 1;
nodes = (
(476,425,o),
(488,310,o),
(488,260,cs),
(488,213,o),
(476,97,o),
(324,97,cs),
(205,97,o),
(173,161,o),
(173,260,cs),
(173,358,o),
(205,425,o),
(324,425,cs)
);
},
{
closed = 1;
nodes = (
(620,0,l),
(620,65,l),
(562,65,l),
(562,0,l)
);
}
);
width = 701;
}
);
metricLeft = o;
unicode = 103;
},
{
glyphname = gmacron;
lastChange = "2026-05-16 21:11:59 +0000";
layers = (
{
hints = (
{
horizontal = 1;
place = (618,84);
type = Stem;
},
{
place = (781,312);
type = Stem;
}
);
layerId = m01;
shapes = (
{
ref = g;
},
{
closed = 1;
nodes = (
(204,618,l),
(516,618,l),
(516,702,l),
(204,702,l)
);
}
);
width = 701;
}
);
unicode = 7713;
},
{
glyphname = h;
lastChange = "2026-04-22 23:43:31 +0000";
layers = (
{
layerId = m01;
name = Regular;
shapes = (
{
closed = 1;
nodes = (
(625,0,l),
(625,239,ls),
(625,306,o),
(644,530,o),
(393,530,cs),
(214,530,o),
(155,382,o),
(155,382,c),
(206,239,l),
(206,258,o),
(230,430,o),
(369,430,cs),
(447,430,o),
(493,369,o),
(493,256,cs),
(493,0,l)
);
},
{
closed = 1;
nodes = (
(206,0,l),
(206,385,l),
(155,382,l),
(130,401,l),
(206,493,l),
(206,764,l),
(74,764,l),
(74,0,l)
);
},
{
closed = 1;
nodes = (
(140,699,l),
(140,764,l),
(52,764,l),
(74,699,l)
);
},
{
closed = 1;
nodes = (
(568,0,l),
(647,0,l),
(625,65,l),
(568,65,l)
);
}
);
width = 692;
}
);
metricLeft = n;
metricRight = n;
unicode = 104;
},
{
glyphname = i;
lastChange = "2026-05-16 20:00:04 +0000";
layers = (
{
anchors = (
{
name = top;
pos = (148,518);
}
);
layerId = m01;
shapes = (
{
closed = 1;
nodes = (
(205,0,l),
(205,518,l),
(73,518,l),
(73,0,l)
);
},
{
closed = 1;
nodes = (
(130,453,l),
(130,518,l),
(50,518,l),
(73,453,l)
);
},
{
closed = 1;
nodes = (
(209,605,o),
(157,601,o),
(136,601,cs),
(114,601,o),
(63,605,o),
(63,674,cs),
(63,726,o),
(92,740,o),
(136,740,cs),
(180,740,o),
(209,726,o),
(209,674,cs)
);
},
{
closed = 1;
nodes = (
(148,0,l),
(227,0,l),
(205,65,l),
(148,65,l)
);
}
);
width = 277;
}
);
unicode = 105;
},
{
glyphname = iacute;
lastChange = "2026-05-16 21:05:01 +0000";
layers = (
{
anchors = (
{
name = top;
pos = (148,518);
}
);
layerId = m01;
shapes = (
{
closed = 1;
nodes = (
(205,0,l),
(205,518,l),
(73,518,l),
(73,0,l)
);
},
{
closed = 1;
nodes = (
(130,453,l),
(130,518,l),
(50,518,l),
(73,453,l)
);
},
{
closed = 1;
nodes = (
(148,0,l),
(227,0,l),
(205,65,l),
(148,65,l)
);
},
{
pos = (-21,0);
ref = acutecomb;
}
);
width = 277;
}
);
unicode = 237;
},
{
glyphname = icircumflex;
lastChange = "2026-05-16 21:05:44 +0000";
layers = (
{
anchors = (
{
name = top;
pos = (148,518);
}
);
layerId = m01;
shapes = (
{
closed = 1;
nodes = (
(205,0,l),
(205,518,l),
(73,518,l),
(73,0,l)
);
},
{
closed = 1;
nodes = (
(130,453,l),
(130,518,l),
(50,518,l),
(73,453,l)
);
},
{
closed = 1;
nodes = (
(148,0,l),
(227,0,l),
(205,65,l),
(148,65,l)
);
},
{
pos = (504,-186);
ref = circumflex;
scale = (0.9626,1);
}
);
width = 277;
}
);
unicode = 238;
},
{
glyphname = idieresis;
lastChange = "2026-05-16 21:06:20 +0000";
layers = (
{
anchors = (
{
name = top;
pos = (148,518);
}
);
hints = (
{
horizontal = 1;
place = (600,120);
type = Stem;
},
{
place = (943,120);
type = Stem;
},
{
place = (751,120);
type = Stem;
}
);
layerId = m01;
shapes = (
{
closed = 1;
nodes = (
(205,0,l),
(205,518,l),
(73,518,l),
(73,0,l)
);
},
{
closed = 1;
nodes = (
(130,453,l),
(130,518,l),
(50,518,l),
(73,453,l)
);
},
{
closed = 1;
nodes = (
(148,0,l),
(227,0,l),
(205,65,l),
(148,65,l)
);
},
{
closed = 1;
nodes = (
(264,594,o),
(291,621,o),
(291,655,cs),
(291,687,o),
(264,714,o),
(230,714,cs),
(197,714,o),
(171,687,o),
(171,655,cs),
(171,621,o),
(197,594,o),
(230,594,cs)
);
},
{
closed = 1;
nodes = (
(-21,621,o),
(5,594,o),
(38,594,cs),
(72,594,o),
(99,621,o),
(99,655,cs),
(99,687,o),
(72,714,o),
(38,714,cs),
(5,714,o),
(-21,687,o),
(-21,655,cs)
);
}
);
width = 277;
}
);
unicode = 239;
},
{
glyphname = j;
lastChange = "2026-05-16 20:01:03 +0000";
layers = (
{
associatedMasterId = m01;
layerId = "9AF2ED93-37FF-4C22-B194-3787D7EA3A05";
name = "5 May 26 at 13:58";
shapes = (
{
closed = 1;
nodes = (
(169,-239,o),
(244,-171,o),
(244,-104,cs),
(244,518,l),
(112,518,l),
(112,-55,ls),
(112,-99,o),
(95,-111,o),
(68,-111,cs),
(41,-111,o),
(11,-83,o),
(-1,-74,c),
(-56,-171,l),
(-34,-194,o),
(11,-239,o),
(104,-239,cs)
);
},
{
closed = 1;
nodes = (
(169,453,l),
(169,518,l),
(90,518,l),
(112,453,l)
);
},
{
closed = 1;
nodes = (
(244,605,o),
(192,601,o),
(171,601,cs),
(149,601,o),
(98,605,o),
(98,674,cs),
(98,726,o),
(127,740,o),
(171,740,cs),
(215,740,o),
(244,726,o),
(244,674,cs)
);
}
);
width = 310;
},
{
anchors = (
{
name = top;
pos = (168,518);
}
);
layerId = m01;
name = Regular;
shapes = (
{
closed = 1;
nodes = (
(245,301,l),
(244,518,l),
(112,518,l),
(112,301,l)
);
},
{
closed = 1;
nodes = (
(169,453,l),
(169,518,l),
(90,518,l),
(112,453,l)
);
},
{
closed = 1;
nodes = (
(244,605,o),
(192,601,o),
(171,601,cs),
(149,601,o),
(98,605,o),
(98,674,cs),
(98,726,o),
(127,740,o),
(171,740,cs),
(215,740,o),
(244,726,o),
(244,674,cs)
);
},
{
closed = 1;
nodes = (
(-84,-211,l),
(9,-249,o),
(114,-257,o),
(182,-189,cs),
(228,-143,o),
(245,-82,o),
(245,49,cs),
(245,301,l),
(112,301,l),
(113,49,ls),
(113,-146,o),
(27,-120,o),
(-49,-96,c)
);
}
);
width = 310;
}
);
unicode = 106;
},
{
glyphname = jdotless;
lastChange = "2026-05-16 21:06:42 +0000";
layers = (
{
layerId = m01;
shapes = (
{
closed = 1;
nodes = (
(245,301,l),
(244,518,l),
(112,518,l),
(112,301,l)
);
},
{
closed = 1;
nodes = (
(169,453,l),
(169,518,l),
(90,518,l),
(112,453,l)
);
},
{
closed = 1;
nodes = (
(-84,-211,l),
(9,-249,o),
(114,-257,o),
(182,-189,cs),
(228,-143,o),
(245,-82,o),
(245,49,cs),
(245,301,l),
(112,301,l),
(113,49,ls),
(113,-146,o),
(27,-120,o),
(-49,-96,c)
);
}
);
width = 310;
}
);
metricLeft = j;
metricRight = j;
unicode = 567;
},
{
glyphname = k;
lastChange = "2026-05-16 22:00:55 +0000";
layers = (
{
associatedMasterId = m01;
layerId = "B6370304-7907-4EDC-A873-C5BAD943A4B5";
name = "19 Mar 26 at 20:46";
shapes = (
{
closed = 1;
nodes = (
(213,0,l),
(213,0,o),
(214,117,o),
(216,123,cs),
(232,184,o),
(318,239,o),
(380,247,cs),
(398,249,o),
(414,250,o),
(429,250,cs),
(605,250,o),
(626,101,o),
(626,28,cs),
(626,4,o),
(624,5,o),
(624,0,c),
(768,0,l),
(768,78,ls),
(768,268,o),
(618,362,o),
(480,362,cs),
(470,362,o),
(460,362,o),
(450,361,cs),
(430,360,o),
(409,355,o),
(390,352,c),
(719,650,l),
(512,650,l),
(185,326,l),
(181,320,l),
(160,285,l),
(128,309,l),
(211,431,l),
(214,1000,l),
(49,1000,l),
(50,0,l)
);
}
);
width = 783;
},
{
associatedMasterId = m01;
layerId = "0F37B28D-DEE0-4DC9-B891-0D2E0EBDD9AF";
name = "24 Mar 26 at 18:47";
shapes = (
{
closed = 1;
nodes = (
(819,0,l),
(819,32,ls),
(819,275,o),
(682,397,o),
(439,352,cs),
(273,321,o),
(193,270,o),
(193,270,c),
(255,54,l),
(255,220,o),
(385,250,o),
(467,250,cs),
(580,250,o),
(663,213,o),
(663,32,cs),
(663,0,l)
);
},
{
closed = 1;
nodes = (
(256,0,l),
(256,273,l),
(193,270,l),
(161,293,l),
(256,408,l),
(256,1000,l),
(92,1000,l),
(92,0,l)
);
},
{
closed = 1;
nodes = (
(173,919,l),
(173,1000,l),
(65,1000,l),
(92,919,l)
);
},
{
closed = 1;
nodes = (
(173,248,l),
(410,346,l),
(739,647,l),
(530,650,l)
);
}
);
width = 864;
},
{
anchors = (
{
name = top;
pos = (322,633);
}
);
layerId = m01;
name = Regular;
shapes = (
{
closed = 1;
nodes = (
(184,0,l),
(183,208,l),
(320,208,ls),
(425,208,o),
(461,176,o),
(465,89,c),
(465,0,l),
(598,0,l),
(598,0,o),
(597,113,o),
(596,124,cs),
(586,226,o),
(528,271,o),
(403,271,c),
(403,288,l),
(497,288,o),
(575,324,o),
(575,517,cs),
(575,526,o),
(575,510,o),
(574,519,c),
(444,518,l),
(444,467,l),
(444,365,o),
(419,332,o),
(309,332,cs),
(179,332,l),
(179,712,l),
(52,712,l),
(52,0,l)
);
}
);
visible = 1;
width = 634;
}
);
metricLeft = h;
metricRight = "=o-5";
unicode = 107;
},
{
glyphname = l;
lastChange = "2026-04-21 01:48:47 +0000";
layers = (
{
layerId = m01;
name = Regular;
shapes = (
{
closed = 1;
nodes = (
(267,112,l),
(262,110,o),
(256,110,o),
(251,110,cs),
(226,110,o),
(200,116,o),
(200,169,cs),
(200,764,l),
(68,764,l),
(68,167,ls),
(68,55,o),
(102,-10,o),
(218,-10,cs),
(264,-10,o),
(293,-4,o),
(316,7,c)
);
},
{
closed = 1;
nodes = (
(135,699,l),
(135,764,l),
(56,764,l),
(78,699,l)
);
}
);
width = 334;
}
);
unicode = 108;
},
{
glyphname = m;
lastChange = "2026-05-16 20:01:18 +0000";
layers = (
{
associatedMasterId = m01;
layerId = "9956EC18-98D1-4579-BFB9-EA1D8685A6E7";
name = "19 Mar 26 at 19:29";
shapes = (
{
closed = 1;
nodes = (
(1159,0,l),
(1162,0,o),
(1164,301,o),
(1164,328,cs),
(1164,591,o),
(1077,663,o),
(876,663,cs),
(748,663,o),
(702,615,o),
(666,556,c),
(621,638,o),
(548,665,o),
(425,665,cs),
(263,665,o),
(176,481,o),
(176,481,c),
(144,504,l),
(220,616,l),
(220,650,l),
(33,650,l),
(60,568,l),
(60,0,l),
(221,0,l),
(221,311,ls),
(221,332,o),
(238,469,o),
(330,519,cs),
(354,532,o),
(381,540,o),
(407,540,cs),
(478,540,o),
(551,483,o),
(551,330,cs),
(551,0,l),
(709,0,l),
(712,0,o),
(714,303,o),
(714,330,cs),
(714,429,o),
(694,470,o),
(781,517,cs),
(805,530,o),
(832,538,o),
(858,538,cs),
(930,538,o),
(1005,481,o),
(1005,328,cs),
(1004,0,l)
);
}
);
width = 1204;
},
{
associatedMasterId = m01;
layerId = "A301F56B-621C-49F3-AB83-A1537491B62C";
name = "19 Mar 26 at 19:30";
shapes = (
{
closed = 1;
nodes = (
(217,0,l),
(217,299,l),
(217,481,l),
(171,481,l),
(138,504,l),
(217,616,l),
(217,650,l),
(62,650,l),
(62,0,l)
);
},
{
closed = 1;
nodes = (
(133,569,l),
(133,650,l),
(34,650,l),
(62,569,l)
);
},
{
closed = 1;
nodes = (
(711,0,l),
(711,433,l),
(711,433,o),
(714,455,o),
(667,539,cs),
(628,608,o),
(557,663,o),
(423,663,cs),
(264,663,o),
(171,481,o),
(171,481,c),
(218,299,l),
(218,322,o),
(235,539,o),
(413,539,cs),
(498,539,o),
(550,448,o),
(550,320,cs),
(550,0,l)
);
},
{
closed = 1;
nodes = (
(1170,0,l),
(1170,299,ls),
(1170,392,o),
(1179,663,o),
(882,663,cs),
(723,663,o),
(630,481,o),
(630,481,c),
(677,299,l),
(677,322,o),
(694,539,o),
(872,539,cs),
(957,539,o),
(1009,448,o),
(1009,320,cs),
(1009,0,l)
);
}
);
width = 1204;
},
{
anchors = (
{
name = top;
pos = (553,518);
}
);
layerId = m01;
name = Regular;
shapes = (
{
closed = 1;
nodes = (
(613,0,l),
(613,260,ls),
(613,334,o),
(640,425,o),
(764,425,cs),
(852,425,o),
(873,358,o),
(873,260,cs),
(873,0,l),
(1004,0,l),
(1005,260,ls),
(1005,430,o),
(932,533,o),
(764,533,cs),
(648,533,o),
(586,501,o),
(537,442,c),
(569,442,l),
(521,501,o),
(463,533,o),
(355,533,cs),
(222,533,o),
(141,382,o),
(141,382,c),
(121,405,l),
(206,506,l),
(206,518,l),
(52,518,l),
(74,455,l),
(74,0,l),
(206,0,l),
(206,260,ls),
(206,310,o),
(206,425,o),
(346,425,cs),
(473,425,o),
(482,334,o),
(482,260,cs),
(481,0,l)
);
},
{
closed = 0;
nodes = (
(206,260,l),
(141,382,l)
);
},
{
closed = 1;
nodes = (
(947,0,l),
(1027,0,l),
(1004,65,l),
(947,65,l)
);
}
);
width = 1068;
}
);
metricLeft = h;
metricRight = o;
unicode = 109;
},
{
glyphname = n;
lastChange = "2026-04-05 17:31:24 +0000";
layers = (
{
associatedMasterId = m01;
layerId = "84FEF5FF-F8E0-49CC-9ED6-187D9201C4D6";
name = "19 Mar 26 at 19:27";
shapes = (
{
closed = 1;
nodes = (
(197,0,l),
(197,259,ls),
(197,326,o),
(214,469,o),
(306,519,cs),
(330,532,o),
(356,539,o),
(382,539,cs),
(454,539,o),
(522,483,o),
(522,330,cs),
(522,0,l),
(680,0,l),
(685,330,ls),
(685,532,o),
(602,665,o),
(401,665,cs),
(239,665,o),
(152,481,o),
(152,481,c),
(120,504,l),
(196,616,l),
(196,650,l),
(17,650,l),
(44,568,l),
(44,0,l)
);
}
);
width = 740;
},
{
layerId = m01;
name = Regular;
shapes = (
{
closed = 1;
nodes = (
(635,0,l),
(635,260,l),
(635,430,o),
(570,533,o),
(397,533,cs),
(219,533,o),
(141,382,o),
(141,382,c),
(121,405,l),
(206,506,l),
(206,518,l),
(74,518,l),
(74,260,l),
(74,0,l),
(206,0,l),
(206,260,l),
(206,310,o),
(218,425,o),
(371,425,cs),
(490,425,o),
(503,358,o),
(503,260,c),
(503,0,l)
);
},
{
closed = 1;
nodes = (
(131,518,l),
(52,518,l),
(74,455,l),
(131,455,l)
);
},
{
closed = 1;
nodes = (
(578,0,l),
(658,0,l),
(635,65,l),
(578,65,l)
);
}
);
width = 703;
}
);
unicode = 110;
},
{
glyphname = o;
lastChange = "2026-05-16 20:01:28 +0000";
layers = (
{
anchors = (
{
name = top;
pos = (336,518);
}
);
background = {
shapes = (
{
closed = 1;
nodes = (
(549,542,o),
(634,400,o),
(634,261,cs),
(634,121,o),
(548,-20,o),
(336,-20,cs),
(124,-20,o),
(37,121,o),
(37,261,cs),
(37,400,o),
(123,542,o),
(336,542,cs)
);
},
{
closed = 1;
nodes = (
(456,89,o),
(498,170,o),
(498,261,cs),
(498,351,o),
(456,433,o),
(336,433,cs),
(230,433,o),
(173,351,o),
(173,261,cs),
(173,170,o),
(216,89,o),
(336,89,cs)
);
}
);
};
layerId = m01;
name = Regular;
shapes = (
{
closed = 1;
nodes = (
(548,-20,o),
(630,121,o),
(630,261,cs),
(630,400,o),
(549,542,o),
(336,542,cs),
(123,542,o),
(41,400,o),
(41,261,cs),
(41,121,o),
(124,-20,o),
(336,-20,cs)
);
},
{
closed = 1;
nodes = (
(216,89,o),
(173,170,o),
(173,261,cs),
(173,351,o),
(230,433,o),
(336,433,cs),
(456,433,o),
(498,351,o),
(498,261,cs),
(498,170,o),
(456,89,o),
(336,89,cs)
);
}
);
width = 671;
}
);
unicode = 111;
},
{
glyphname = ocircumflex;
lastChange = "2026-05-16 22:01:26 +0000";
layers = (
{
anchors = (
{
name = top;
pos = (336,518);
}
);
layerId = m01;
shapes = (
{
closed = 1;
nodes = (
(548,-20,o),
(630,121,o),
(630,261,cs),
(630,400,o),
(549,542,o),
(336,542,cs),
(123,542,o),
(41,400,o),
(41,261,cs),
(41,121,o),
(124,-20,o),
(336,-20,cs)
);
},
{
closed = 1;
nodes = (
(216,89,o),
(173,170,o),
(173,261,cs),
(173,351,o),
(230,433,o),
(336,433,cs),
(456,433,o),
(498,351,o),
(498,261,cs),
(498,170,o),
(456,89,o),
(336,89,cs)
);
},
{
alignment = -1;
pos = (715,-174);
ref = circumflex;
}
);
width = 671;
}
);
metricLeft = o;
metricRight = o;
unicode = 244;
},
{
glyphname = odieresis;
lastChange = "2026-05-16 22:01:36 +0000";
layers = (
{
hints = (
{
horizontal = 1;
place = (600,120);
type = Stem;
},
{
place = (943,120);
type = Stem;
},
{
place = (751,120);
type = Stem;
}
);
layerId = m01;
shapes = (
{
alignment = -1;
ref = o;
},
{
closed = 1;
nodes = (
(462,594,o),
(489,621,o),
(489,655,cs),
(489,687,o),
(462,714,o),
(428,714,cs),
(395,714,o),
(369,687,o),
(369,655,cs),
(369,621,o),
(395,594,o),
(428,594,cs)
);
},
{
closed = 1;
nodes = (
(177,621,o),
(203,594,o),
(236,594,cs),
(270,594,o),
(297,621,o),
(297,655,cs),
(297,687,o),
(270,714,o),
(236,714,cs),
(203,714,o),
(177,687,o),
(177,655,cs)
);
}
);
width = 671;
}
);
metricLeft = o;
metricRight = o;
unicode = 246;
},
{
glyphname = oe;
lastChange = "2026-05-16 22:02:09 +0000";
layers = (
{
layerId = m01;
shapes = (
{
closed = 1;
nodes = (
(514,-20,o),
(591,121,o),
(591,261,cs),
(591,400,o),
(515,542,o),
(317,542,cs),
(118,542,o),
(41,400,o),
(41,261,cs),
(41,121,o),
(119,-20,o),
(317,-20,cs)
);
},
{
closed = 1;
nodes = (
(205,89,o),
(164,170,o),
(164,261,cs),
(164,351,o),
(218,433,o),
(317,433,cs),
(429,433,o),
(468,351,o),
(468,261,cs),
(468,170,o),
(429,89,o),
(317,89,cs)
);
},
{
closed = 1;
nodes = (
(1013,213,l),
(1013,361,o),
(984,542,o),
(742,542,cs),
(514,542,o),
(472,365,o),
(472,257,cs),
(472,173,o),
(506,-20,o),
(752,-20,cs),
(939,-20,o),
(1001,107,o),
(1001,107,c),
(890,157,l),
(890,157,o),
(857,89,o),
(752,89,cs),
(605,89,o),
(596,213,o),
(596,213,c)
);
},
{
closed = 1;
nodes = (
(820,425,o),
(877,376,o),
(877,313,c),
(595,313,l),
(595,376,o),
(656,425,o),
(736,425,c)
);
}
);
width = 1054;
}
);
metricLeft = o;
metricRight = o;
unicode = 339;
},
{
glyphname = p;
lastChange = "2026-05-16 20:01:36 +0000";
layers = (
{
associatedMasterId = m01;
layerId = "2320BD34-C072-43B0-A2FF-DF1AD9D51294";
name = "19 Mar 26 at 18:51";
shapes = (
{
closed = 1;
nodes = (
(201,-301,l),
(201,33,l),
(127,158,l),
(157,179,l),
(181,139,l),
(182,138,ls),
(229,65,o),
(287,-10,o),
(451,-11,cs),
(723,-13,o),
(799,209,o),
(799,328,cs),
(799,548,o),
(636,662,o),
(451,662,cs),
(372,662,o),
(275,626,o),
(205,552,c),
(204,552,l),
(152,479,l),
(137,491,l),
(120,506,l),
(228,632,l),
(229,632,l),
(212,650,l),
(14,650,l),
(41,568,l),
(42,568,l),
(42,482,l),
(41,-301,l)
);
},
{
closed = 1;
nodes = (
(402,117,o),
(346,134,o),
(298,161,cs),
(264,180,o),
(241,215,o),
(235,256,c),
(235,400,l),
(241,441,o),
(264,476,o),
(298,495,cs),
(346,522,o),
(402,539,o),
(454,539,cs),
(550,539,o),
(634,481,o),
(634,328,cs),
(634,175,o),
(550,117,o),
(453,117,cs)
);
}
);
width = 823;
},
{
anchors = (
{
name = top;
pos = (384,518);
}
);
layerId = m01;
name = Regular;
shapes = (
{
closed = 1;
nodes = (
(218,532,o),
(141,385,o),
(141,385,c),
(121,399,l),
(206,497,l),
(206,518,l),
(74,518,l),
(74,2,l),
(74,-241,l),
(206,-241,l),
(206,22,l),
(121,125,l),
(141,139,l),
(141,139,o),
(219,-11,o),
(397,-11,cs),
(566,-11,o),
(654,126,o),
(654,262,cs),
(654,398,o),
(565,534,o),
(397,533,cs)
);
},
{
closed = 1;
nodes = (
(218,97,o),
(206,212,o),
(206,262,cs),
(206,309,o),
(218,425,o),
(371,425,cs),
(490,425,o),
(522,361,o),
(522,262,cs),
(522,163,o),
(490,97,o),
(371,97,cs)
);
},
{
closed = 1;
nodes = (
(52,518,l),
(74,453,l),
(133,457,l),
(133,518,l)
);
},
{
closed = 1;
nodes = (
(150,-241,l),
(229,-241,l),
(206,-176,l),
(150,-176,l)
);
}
);
width = 695;
}
);
metricLeft = h;
metricRight = o;
unicode = 112;
},
{
glyphname = q;
lastChange = "2026-05-16 20:01:40 +0000";
layers = (
{
associatedMasterId = m01;
layerId = "68D9D806-91E1-4335-BAD3-A5FD15C9157C";
name = "19 Mar 26 at 20:18";
shapes = (
{
closed = 1;
nodes = (
(767,482,l),
(767,568,l),
(768,568,l),
(795,650,l),
(597,650,l),
(580,632,l),
(581,632,l),
(689,506,l),
(672,491,l),
(657,479,l),
(605,552,l),
(604,552,l),
(534,626,o),
(437,662,o),
(358,662,cs),
(173,662,o),
(10,548,o),
(10,328,cs),
(10,209,o),
(71,-11,o),
(358,-11,cs),
(522,-11,o),
(580,65,o),
(627,138,cs),
(628,139,l),
(652,179,l),
(682,158,l),
(608,33,l),
(608,-301,l),
(768,-301,l)
);
},
{
closed = 1;
nodes = (
(259,117,o),
(175,175,o),
(175,328,cs),
(175,481,o),
(259,539,o),
(355,539,cs),
(407,539,o),
(463,522,o),
(511,495,cs),
(545,476,o),
(568,441,o),
(574,400,c),
(574,256,l),
(568,215,o),
(545,180,o),
(511,161,cs),
(463,134,o),
(407,117,o),
(356,117,cs)
);
}
);
width = 833;
},
{
anchors = (
{
name = top;
pos = (322,518);
}
);
layerId = m01;
name = Regular;
shapes = (
{
closed = 1;
nodes = (
(130,534,o),
(41,398,o),
(41,262,cs),
(41,126,o),
(129,-11,o),
(298,-11,cs),
(476,-11,o),
(554,139,o),
(554,139,c),
(574,125,l),
(488,22,l),
(488,-241,l),
(620,-241,l),
(620,2,l),
(620,518,l),
(488,518,l),
(488,497,l),
(574,399,l),
(554,385,l),
(554,385,o),
(477,532,o),
(298,533,cs)
);
},
{
closed = 1;
nodes = (
(205,97,o),
(173,163,o),
(173,262,cs),
(173,361,o),
(205,425,o),
(324,425,cs),
(476,425,o),
(488,309,o),
(488,262,cs),
(488,212,o),
(476,97,o),
(324,97,cs)
);
},
{
closed = 1;
nodes = (
(562,453,l),
(620,453,l),
(643,518,l),
(562,518,l)
);
},
{
closed = 1;
nodes = (
(564,-241,l),
(643,-241,l),
(620,-176,l),
(564,-176,l)
);
}
);
width = 695;
}
);
metricLeft = o;
metricRight = "=|h";
unicode = 113;
},
{
glyphname = r;
lastChange = "2026-05-19 19:56:26 +0000";
layers = (
{
associatedMasterId = m01;
layerId = "8C826529-143F-4A30-AC83-DE4276295D00";
name = "19 Mar 26 at 20:12";
shapes = (
{
closed = 1;
nodes = (
(730,0,l),
(730,299,ls),
(730,392,o),
(731,663,o),
(465,663,cs),
(290,663,o),
(168,479,o),
(168,479,c),
(233,299,l),
(233,322,o),
(250,539,o),
(424,539,cs),
(507,539,o),
(558,448,o),
(558,320,cs),
(558,0,l)
);
},
{
closed = 1;
nodes = (
(233,0,l),
(233,299,l),
(233,481,l),
(168,479,l),
(137,502,l),
(233,614,l),
(233,650,l),
(68,650,l),
(68,0,l)
);
},
{
closed = 1;
nodes = (
(149,569,l),
(149,650,l),
(40,650,l),
(68,569,l)
);
}
);
width = 539;
},
{
associatedMasterId = m01;
layerId = "0BBB84AE-7D83-41F7-8459-5BDCA80652F5";
name = "19 Mar 26 at 20:14";
shapes = (
{
closed = 1;
nodes = (
(544,620,o),
(492,657,o),
(430,665,c),
(268,665,o),
(181,481,o),
(181,481,c),
(149,504,l),
(225,616,l),
(225,650,l),
(30,650,l),
(67,567,l),
(67,0,l),
(224,0,l),
(224,437,l),
(232,462,o),
(244,481,o),
(257,497,cs),
(282,526,o),
(312,536,o),
(342,536,cs),
(386,536,o),
(431,509,o),
(449,411,c),
(404,427,l),
(595,619,l),
(583,560,l)
);
}
);
width = 539;
},
{
anchors = (
{
name = top;
pos = (264,518);
}
);
layerId = m01;
name = Regular;
shapes = (
{
closed = 1;
nodes = (
(495,469,l),
(379,556,o),
(252,545,o),
(141,385,c),
(206,235,l),
(206,331,o),
(241,398,o),
(294,412,cs),
(326,420,o),
(362,409,o),
(397,373,c)
);
},
{
closed = 1;
nodes = (
(206,0,l),
(206,109,l),
(206,385,l),
(141,385,l),
(121,399,l),
(206,489,l),
(206,518,l),
(74,518,l),
(74,0,l)
);
},
{
closed = 1;
nodes = (
(52,518,l),
(74,453,l),
(100,453,l),
(74,518,l)
);
}
);
visible = 1;
width = 486;
},
{
associatedMasterId = m01;
layerId = "53237B02-B712-44B3-BD41-B3095F58CB9E";
name = "22 Apr 26 at 19:39";
shapes = (
{
closed = 1;
nodes = (
(474,470,l),
(448,506,o),
(409,530,o),
(348,530,cs),
(236,530,o),
(141,385,o),
(141,385,c),
(201,235,l),
(201,280,o),
(222,428,o),
(304,428,cs),
(337,428,o),
(358,411,o),
(376,374,c)
);
},
{
closed = 1;
nodes = (
(206,0,l),
(206,109,l),
(206,385,l),
(141,385,l),
(121,399,l),
(206,489,l),
(206,518,l),
(74,518,l),
(74,0,l)
);
},
{
closed = 1;
nodes = (
(52,518,l),
(74,453,l),
(100,453,l),
(74,518,l)
);
}
);
visible = 1;
width = 486;
}
);
metricLeft = h;
unicode = 114;
},
{
glyphname = s;
lastChange = "2026-05-19 19:55:33 +0000";
layers = (
{
anchors = (
{
name = top;
pos = (305,518);
}
);
layerId = m01;
name = Regular;
shapes = (
{
closed = 1;
nodes = (
(538,408,l),
(505,461,o),
(444,538,o),
(303,538,cs),
(147,538,o),
(61,451,o),
(65,360,cs),
(67,298,o),
(101,227,o),
(297,212,cs),
(396,206,o),
(428,189,o),
(428,153,cs),
(428,108,o),
(384,90,o),
(312,90,cs),
(192,90,o),
(159,160,o),
(149,177,c),
(41,133,l),
(46,118,o),
(68,59,o),
(139,19,cs),
(178,-3,o),
(232,-19,o),
(305,-19,cs),
(514,-19,o),
(550,91,o),
(550,156,cs),
(550,264,o),
(467,298,o),
(307,317,cs),
(209,328,o),
(193,351,o),
(193,371,cs),
(193,395,o),
(218,430,o),
(294,430,cs),
(385,430,o),
(420,376,o),
(430,363,c)
);
}
);
width = 591;
}
);
metricLeft = o;
metricRight = o;
unicode = 115;
},
{
glyphname = scaron;
lastChange = "2026-05-16 21:25:37 +0000";
layers = (
{
anchors = (
{
name = top;
pos = (305,518);
}
);
layerId = m01;
shapes = (
{
closed = 1;
nodes = (
(538,408,l),
(505,461,o),
(444,538,o),
(303,538,cs),
(147,538,o),
(61,451,o),
(65,360,cs),
(67,298,o),
(101,227,o),
(297,212,cs),
(396,206,o),
(428,189,o),
(428,153,cs),
(428,108,o),
(384,90,o),
(312,90,cs),
(192,90,o),
(159,160,o),
(149,177,c),
(41,133,l),
(46,118,o),
(68,59,o),
(139,19,cs),
(178,-3,o),
(232,-19,o),
(305,-19,cs),
(514,-19,o),
(550,91,o),
(550,156,cs),
(550,264,o),
(467,298,o),
(307,317,cs),
(209,328,o),
(196,351,o),
(196,371,cs),
(196,395,o),
(218,430,o),
(294,430,cs),
(385,430,o),
(420,376,o),
(430,363,c)
);
},
{
pos = (38,0);
ref = caron;
}
);
width = 591;
}
);
metricLeft = s;
metricRight = s;
unicode = 353;
},
{
glyphname = t;
lastChange = "2026-05-16 20:01:57 +0000";
layers = (
{
associatedMasterId = m01;
layerId = "C0060632-081D-4760-A539-C35527207108";
name = "18 Mar 26 at 10:22";
shapes = (
{
closed = 1;
nodes = (
(389,191,l),
(454,187,l),
(401,139,o),
(394,137,o),
(353,137,cs),
(343,137,o),
(333,139,o),
(323,145,cs),
(294,160,o),
(288,249,o),
(288,314,cs),
(288,388,o),
(292,476,o),
(292,523,c),
(450,523,l),
(450,651,l),
(389,651,ls),
(323,651,o),
(319,651,o),
(294,616,c),
(264,566,l),
(233,586,l),
(276,651,ls),
(306,697,o),
(304,699,o),
(303,755,cs),
(302,849,l),
(138,849,l),
(138,733,l),
(166,651,l),
(34,651,l),
(34,523,l),
(131,523,l),
(133,340,l),
(134,216,ls),
(135,57,o),
(208,0,o),
(306,0,cs),
(404,0,o),
(430,13,o),
(511,87,c),
(507,23,l)
);
},
{
closed = 0;
nodes = (
(146,930,ls)
);
}
);
visible = 1;
width = 504;
},
{
layerId = m01;
name = Regular;
shapes = (
{
closed = 1;
nodes = (
(227,454,l),
(200,469,l),
(240,531,ls),
(252,552,o),
(255,566,o),
(255,600,cs),
(255,680,l),
(123,680,l),
(123,578,l),
(145,518,l),
(40,518,l),
(40,416,l),
(122,416,l),
(122,213,ls),
(122,111,o),
(154,50,o),
(206,15,cs),
(254,-18,o),
(346,-18,o),
(435,19,c),
(399,129,l),
(354,109,o),
(323,106,o),
(302,115,cs),
(259,132,o),
(254,199,o),
(254,279,cs),
(254,416,l),
(374,415,l),
(374,518,l),
(317,518,ls),
(274,518,o),
(266,518,o),
(246,485,cs)
);
}
);
visible = 1;
width = 443;
}
);
unicode = 116;
},
{
glyphname = u;
lastChange = "2026-05-16 20:02:02 +0000";
layers = (
{
associatedMasterId = m01;
layerId = "6255F494-06C9-434E-9E03-1E86F798714F";
name = "19 Mar 26 at 20:56";
shapes = (
{
closed = 1;
nodes = (
(491,-15,o),
(578,169,o),
(578,169,c),
(610,146,l),
(534,34,l),
(534,-45,l),
(489,0,l),
(770,0,l),
(739,-43,l),
(698,82,l),
(698,650,l),
(507,650,l),
(533,570,l),
(533,340,ls),
(533,318,o),
(516,181,o),
(424,131,cs),
(334,82,o),
(208,112,o),
(208,320,cs),
(208,649,l),
(20,650,l),
(47,568,l),
(45,320,ls),
(45,58,o),
(148,-15,o),
(329,-15,cs)
);
}
);
width = 756;
},
{
anchors = (
{
name = top;
pos = (322,518);
}
);
layerId = m01;
name = Regular;
shapes = (
{
closed = 1;
nodes = (
(51,518,l),
(51,260,l),
(51,90,o),
(117,-13,o),
(290,-13,cs),
(467,-13,o),
(546,138,o),
(546,138,c),
(566,118,l),
(480,14,l),
(480,0,l),
(612,0,l),
(612,260,l),
(612,518,l),
(480,518,l),
(480,260,l),
(480,210,o),
(468,95,o),
(315,95,cs),
(197,95,o),
(183,162,o),
(183,260,c),
(183,518,l)
);
},
{
closed = 1;
nodes = (
(555,0,l),
(634,0,l),
(612,65,l),
(555,65,l)
);
},
{
closed = 1;
nodes = (
(108,518,l),
(29,518,l),
(51,453,l),
(108,453,l)
);
}
);
width = 686;
}
);
metricRight = "=|h";
unicode = 117;
},
{
glyphname = ucircumflex;
lastChange = "2026-05-19 19:46:00 +0000";
layers = (
{
hints = (
{
horizontal = 1;
place = (670,70);
type = Stem;
},
{
horizontal = 1;
place = (590,150);
type = Stem;
},
{
place = (766,366);
type = Stem;
}
);
layerId = m01;
shapes = (
{
alignment = -1;
ref = u;
},
{
closed = 1;
nodes = (
(149,599,l),
(252,599,l),
(332,679,l),
(412,599,l),
(515,599,l),
(375,749,l),
(289,749,l)
);
}
);
width = 686;
}
);
metricLeft = u;
metricRight = u;
unicode = 251;
},
{
glyphname = udieresis;
lastChange = "2026-05-19 19:46:08 +0000";
layers = (
{
hints = (
{
horizontal = 1;
place = (600,120);
type = Stem;
},
{
place = (958,120);
type = Stem;
},
{
place = (766,120);
type = Stem;
}
);
layerId = m01;
shapes = (
{
alignment = -1;
ref = u;
},
{
closed = 1;
nodes = (
(458,608,o),
(485,635,o),
(485,669,cs),
(485,701,o),
(458,728,o),
(424,728,cs),
(391,728,o),
(365,701,o),
(365,669,cs),
(365,635,o),
(391,608,o),
(424,608,cs)
);
},
{
closed = 1;
nodes = (
(173,635,o),
(199,608,o),
(232,608,cs),
(266,608,o),
(293,635,o),
(293,669,cs),
(293,701,o),
(266,728,o),
(232,728,cs),
(199,728,o),
(173,701,o),
(173,669,cs)
);
}
);
width = 686;
}
);
metricLeft = u;
metricRight = u;
unicode = 252;
},
{
glyphname = v;
lastChange = "2026-05-16 20:58:49 +0000";
layers = (
{
anchors = (
{
name = top;
pos = (322,518);
}
);
layerId = m01;
shapes = (
{
closed = 1;
nodes = (
(241,-19,l),
(391,-19,l),
(601,518,l),
(463,518,l),
(330,130,l),
(342,46,l),
(319,46,l),
(173,518,l),
(36,518,l)
);
}
);
width = 637;
}
);
unicode = 118;
},
{
glyphname = w;
lastChange = "2026-05-16 21:11:14 +0000";
layers = (
{
associatedMasterId = m01;
layerId = "F042E591-9FF8-43FF-B5EC-D98B2728779D";
name = "22 Apr 26 at 19:29";
shapes = (
{
closed = 1;
nodes = (
(390,-19,l),
(434,138,l),
(488,344,l),
(498,344,l),
(562,138,l),
(606,-19,l),
(770,-19,l),
(950,518,l),
(812,518,l),
(717,173,l),
(692,62,l),
(672,62,l),
(676,89,ls),
(677,97,o),
(678,105,o),
(678,113,cs),
(678,132,o),
(674,149,o),
(668,169,cs),
(633,285,o),
(569,402,o),
(534,518,c),
(452,518,l),
(328,169,ls),
(321,149,o),
(318,132,o),
(318,113,cs),
(318,105,o),
(319,97,o),
(320,89,cs),
(324,62,l),
(304,62,l),
(279,173,l),
(174,518,l),
(36,518,l),
(226,-19,l)
);
}
);
width = 955;
},
{
anchors = (
{
name = top;
pos = (468,518);
}
);
layerId = m01;
name = Regular;
shapes = (
{
closed = 1;
nodes = (
(376,0,l),
(468,341,l),
(562,0,l),
(745,0,l),
(901,518,l),
(763,518,l),
(682,169,ls),
(677,149,o),
(672,132,o),
(672,113,cs),
(672,105,o),
(673,97,o),
(674,89,cs),
(678,62,l),
(658,62,l),
(521,518,l),
(420,518,l),
(301,169,ls),
(294,149,o),
(291,132,o),
(291,113,cs),
(291,105,o),
(292,97,o),
(293,89,cs),
(297,62,l),
(277,62,l),
(252,173,l),
(174,518,l),
(36,518,l),
(199,0,l)
);
}
);
width = 937;
}
);
metricLeft = v;
metricRight = v;
unicode = 119;
},
{
glyphname = wcircumflex;
lastChange = "2026-05-16 21:11:14 +0000";
layers = (
{
hints = (
{
horizontal = 1;
place = (670,70);
type = Stem;
},
{
horizontal = 1;
place = (590,150);
type = Stem;
},
{
place = (1035,366);
type = Stem;
}
);
layerId = m01;
shapes = (
{
ref = w;
},
{
closed = 1;
nodes = (
(286,588,l),
(389,588,l),
(469,668,l),
(549,588,l),
(652,588,l),
(512,738,l),
(426,738,l)
);
}
);
width = 937;
}
);
metricLeft = w;
metricRight = w;
unicode = 373;
},
{
glyphname = wdieresis;
lastChange = "2026-05-16 21:11:14 +0000";
layers = (
{
hints = (
{
horizontal = 1;
place = (600,120);
type = Stem;
},
{
place = (1227,120);
type = Stem;
},
{
place = (1035,120);
type = Stem;
}
);
layerId = m01;
shapes = (
{
ref = w;
},
{
closed = 1;
nodes = (
(602,585,o),
(629,612,o),
(629,646,cs),
(629,678,o),
(602,705,o),
(568,705,cs),
(535,705,o),
(509,678,o),
(509,646,cs),
(509,612,o),
(535,585,o),
(568,585,cs)
);
},
{
closed = 1;
nodes = (
(317,612,o),
(343,585,o),
(376,585,cs),
(410,585,o),
(437,612,o),
(437,646,cs),
(437,678,o),
(410,705,o),
(376,705,cs),
(343,705,o),
(317,678,o),
(317,646,cs)
);
}
);
width = 937;
}
);
metricRight = w;
unicode = 7813;
},
{
glyphname = x;
lastChange = "2026-05-16 20:57:22 +0000";
layers = (
{
layerId = m01;
shapes = (
{
closed = 1;
nodes = (
(313,334,l),
(183,518,l),
(36,518,l),
(313,179,l)
);
},
{
closed = 1;
nodes = (
(596,518,l),
(449,518,l),
(40,0,l),
(187,0,l)
);
},
{
closed = 1;
nodes = (
(318,182,l),
(448,-2,l),
(595,-2,l),
(318,337,l)
);
}
);
width = 647;
},
{
associatedMasterId = m01;
layerId = "6B90A1B6-2075-4458-AC00-86D52A986E7A";
name = "19 Mar 26 at 20:57";
shapes = (
{
closed = 1;
nodes = (
(213,248,l),
(466,352,l),
(740,650,l),
(535,650,l)
);
},
{
closed = 1;
nodes = (
(-14,650,l),
(260,352,l),
(513,248,l),
(191,650,l)
);
},
{
closed = 1;
nodes = (
(740,0,l),
(466,298,l),
(213,402,l),
(535,0,l)
);
},
{
closed = 1;
nodes = (
(513,402,l),
(260,298,l),
(-14,0,l),
(191,0,l)
);
}
);
width = 723;
}
);
metricLeft = y;
metricRight = y;
unicode = 120;
},
{
glyphname = y;
lastChange = "2026-05-16 20:02:13 +0000";
layers = (
{
anchors = (
{
name = top;
pos = (322,518);
}
);
layerId = m01;
shapes = (
{
closed = 1;
nodes = (
(291,17,l),
(206,-242,l),
(338,-241,l),
(417,-19,l)
);
},
{
closed = 1;
nodes = (
(590,518,l),
(459,518,l),
(355,169,ls),
(346,140,o),
(343,118,o),
(347,89,cs),
(351,63,l),
(331,61,l),
(299,173,l),
(174,518,l),
(36,518,l),
(246,-19,l),
(417,-19,l)
);
}
);
width = 641;
},
{
associatedMasterId = m01;
layerId = "9C9046F1-238F-4386-A989-9651D65659C6";
name = "19 Mar 26 at 19:37";
width = 670;
}
);
unicode = 121;
},
{
glyphname = ycircumflex;
lastChange = "2026-05-16 20:57:00 +0000";
layers = (
{
anchors = (
{
name = top;
pos = (322,518);
}
);
layerId = m01;
shapes = (
{
closed = 1;
nodes = (
(291,17,l),
(206,-242,l),
(338,-241,l),
(417,-19,l)
);
},
{
closed = 1;
nodes = (
(590,518,l),
(459,518,l),
(355,169,ls),
(346,140,o),
(343,118,o),
(347,89,cs),
(351,63,l),
(331,61,l),
(299,173,l),
(174,518,l),
(36,518,l),
(246,-19,l),
(417,-19,l)
);
},
{
pos = (704,-161);
ref = circumflex;
}
);
width = 641;
}
);
metricLeft = y;
metricRight = y;
unicode = 375;
},
{
glyphname = ydieresis;
lastChange = "2026-05-16 20:56:50 +0000";
layers = (
{
anchors = (
{
name = top;
pos = (322,518);
}
);
layerId = m01;
shapes = (
{
closed = 1;
nodes = (
(291,17,l),
(206,-242,l),
(338,-241,l),
(417,-19,l)
);
},
{
closed = 1;
nodes = (
(590,518,l),
(459,518,l),
(355,169,ls),
(346,140,o),
(343,118,o),
(347,89,cs),
(351,63,l),
(331,61,l),
(299,173,l),
(174,518,l),
(36,518,l),
(246,-19,l),
(417,-19,l)
);
},
{
pos = (715,-171);
ref = dieresis;
}
);
width = 641;
}
);
metricLeft = y;
metricRight = y;
unicode = 255;
},
{
glyphname = ygrave;
lastChange = "2026-05-16 20:57:16 +0000";
layers = (
{
hints = (
{
horizontal = 1;
place = (598,150);
type = Stem;
},
{
place = (158,241);
type = Stem;
}
);
layerId = m01;
shapes = (
{
ref = y;
},
{
closed = 1;
nodes = (
(295,598,l),
(386,598,l),
(274,748,l),
(145,748,l)
);
}
);
width = 641;
}
);
metricLeft = y;
metricRight = y;
unicode = 7923;
},
{
glyphname = z;
lastChange = "2026-05-16 20:02:19 +0000";
layers = (
{
anchors = (
{
name = top;
pos = (279,518);
}
);
layerId = m01;
shapes = (
{
closed = 1;
nodes = (
(525,0,l),
(525,103,l),
(303,103,ls),
(247,103,o),
(226,94,o),
(177,42,c),
(162,55,l),
(509,445,l),
(525,520,l),
(15,520,l),
(15,417,l),
(223,417,ls),
(279,417,o),
(300,426,o),
(349,478,c),
(362,465,l),
(15,75,l),
(15,0,l)
);
}
);
width = 524;
}
);
unicode = 122;
},
{
glyphname = g.001;
lastChange = "2026-05-16 21:59:18 +0000";
layers = (
{
layerId = m01;
shapes = (
{
closed = 1;
nodes = (
(496,76,o),
(567,155,o),
(567,268,cs),
(567,340,o),
(530,407,o),
(469,417,c),
(446,417,l),
(446,439,l),
(575,439,l),
(575,518,l),
(304,518,ls),
(114,518,o),
(41,404,o),
(41,292,cs),
(41,224,o),
(67,157,o),
(129,113,c),
(85,89,o),
(64,50,o),
(68,17,cs),
(79,-63,o),
(166,-74,o),
(263,-79,cs),
(350,-84,o),
(434,-83,o),
(438,-125,cs),
(442,-166,o),
(405,-194,o),
(332,-195,cs),
(214,-197,o),
(183,-146,o),
(172,-131,c),
(51,-181,l),
(129,-279,o),
(221,-308,o),
(319,-308,cs),
(498,-308,o),
(575,-225,o),
(575,-118,cs),
(575,10,o),
(422,24,o),
(319,24,cs),
(205,24,o),
(195,28,o),
(193,38,cs),
(191,52,o),
(205,54,o),
(306,66,c)
);
},
{
closed = 1;
nodes = (
(199,166,o),
(172,225,o),
(172,292,cs),
(172,358,o),
(210,418,o),
(304,418,cs),
(409,418,o),
(436,358,o),
(436,292,cs),
(436,225,o),
(409,166,o),
(304,166,cs)
);
}
);
width = 627;
}
);
metricLeft = g;
metricRight = u;
},
{
glyphname = k.001;
lastChange = "2026-05-16 21:11:14 +0000";
layers = (
{
associatedMasterId = m01;
layerId = "B6370304-7907-4EDC-A873-C5BAD943A4B5";
name = "19 Mar 26 at 20:46";
shapes = (
{
closed = 1;
nodes = (
(213,0,l),
(213,0,o),
(214,117,o),
(216,123,cs),
(232,184,o),
(318,239,o),
(380,247,cs),
(398,249,o),
(414,250,o),
(429,250,cs),
(605,250,o),
(626,101,o),
(626,28,cs),
(626,4,o),
(624,5,o),
(624,0,c),
(768,0,l),
(768,78,ls),
(768,268,o),
(618,362,o),
(480,362,cs),
(470,362,o),
(460,362,o),
(450,361,cs),
(430,360,o),
(409,355,o),
(390,352,c),
(719,650,l),
(512,650,l),
(185,326,l),
(181,320,l),
(160,285,l),
(128,309,l),
(211,431,l),
(214,1000,l),
(49,1000,l),
(50,0,l)
);
}
);
width = 783;
},
{
associatedMasterId = m01;
layerId = "0F37B28D-DEE0-4DC9-B891-0D2E0EBDD9AF";
name = "24 Mar 26 at 18:47";
shapes = (
{
closed = 1;
nodes = (
(819,0,l),
(819,32,ls),
(819,275,o),
(682,397,o),
(439,352,cs),
(273,321,o),
(193,270,o),
(193,270,c),
(255,54,l),
(255,220,o),
(385,250,o),
(467,250,cs),
(580,250,o),
(663,213,o),
(663,32,cs),
(663,0,l)
);
},
{
closed = 1;
nodes = (
(256,0,l),
(256,273,l),
(193,270,l),
(161,293,l),
(256,408,l),
(256,1000,l),
(92,1000,l),
(92,0,l)
);
},
{
closed = 1;
nodes = (
(173,919,l),
(173,1000,l),
(65,1000,l),
(92,919,l)
);
},
{
closed = 1;
nodes = (
(173,248,l),
(410,346,l),
(739,647,l),
(530,650,l)
);
}
);
width = 864;
},
{
associatedMasterId = m01;
layerId = "6306028A-3C2F-4784-9411-93F0CB2C62A0";
name = "16 May 26 at 15:31";
width = 634;
},
{
layerId = m01;
name = Regular;
shapes = (
{
closed = 1;
nodes = (
(660,0,l),
(660,10,o),
(660,21,o),
(660,30,cs),
(660,166,o),
(619,326,o),
(401,309,cs),
(240,296,o),
(152,207,o),
(152,207,c),
(134,223,l),
(206,310,l),
(206,764,l),
(74,764,l),
(74,337,l),
(74,0,l),
(206,0,l),
(206,12,o),
(206,22,o),
(206,30,cs),
(206,80,o),
(218,186,o),
(371,196,cs),
(490,204,o),
(528,129,o),
(528,30,cs),
(528,20,o),
(528,10,o),
(528,0,c)
);
},
{
closed = 1;
nodes = (
(131,764,l),
(52,764,l),
(74,699,l),
(131,699,l)
);
},
{
closed = 1;
nodes = (
(152,207,l),
(371,302,l),
(348,302,l),
(406,328,l),
(660,518,l),
(446,518,l)
);
}
);
width = 696;
}
);
metricLeft = h;
metricRight = "=o-5";
},
{
glyphname = t_t.liga;
lastChange = "2026-05-16 21:38:47 +0000";
layers = (
{
layerId = m01;
shapes = (
{
closed = 1;
nodes = (
(562,454,l),
(535,469,l),
(575,531,ls),
(587,552,o),
(590,566,o),
(590,600,cs),
(590,680,l),
(458,680,l),
(458,578,l),
(480,518,l),
(375,518,l),
(375,416,l),
(457,416,l),
(457,213,ls),
(457,111,o),
(489,50,o),
(541,15,cs),
(589,-18,o),
(681,-18,o),
(770,19,c),
(734,129,l),
(689,109,o),
(658,106,o),
(637,115,cs),
(594,132,o),
(589,199,o),
(589,279,cs),
(589,416,l),
(709,415,l),
(709,518,l),
(652,518,ls),
(609,518,o),
(601,518,o),
(581,485,cs)
);
},
{
closed = 1;
nodes = (
(227,454,l),
(200,469,l),
(240,531,ls),
(252,552,o),
(255,566,o),
(255,600,cs),
(255,680,l),
(123,680,l),
(123,578,l),
(145,518,l),
(40,518,l),
(40,416,l),
(122,416,l),
(122,213,ls),
(122,111,o),
(154,50,o),
(206,15,cs),
(254,-18,o),
(361,-18,o),
(450,19,c),
(422,59,o),
(408,88,o),
(399,129,c),
(354,109,o),
(323,106,o),
(302,115,cs),
(259,132,o),
(254,199,o),
(254,279,cs),
(254,416,l),
(375,416,l),
(375,518,l),
(317,518,ls),
(274,518,o),
(266,518,o),
(246,485,cs)
);
}
);
width = 792;
}
);
},
{
glyphname = zero.tf;
lastChange = "2026-05-16 20:03:50 +0000";
layers = (
{
hints = (
{
horizontal = 1;
place = (572,90);
type = Stem;
},
{
horizontal = 1;
place = (-13,90);
type = Stem;
},
{
place = (452,94);
type = Stem;
},
{
place = (64,94);
type = Stem;
}
);
layerId = m01;
shapes = (
{
closed = 1;
nodes = (
(484,-13,o),
(597,109,o),
(597,327,cs),
(597,541,o),
(484,662,o),
(305,662,cs),
(126,662,o),
(13,541,o),
(13,327,cs),
(13,109,o),
(126,-13,o),
(305,-13,cs)
);
},
{
closed = 1;
nodes = (
(145,476,o),
(209,560,o),
(305,560,cs),
(401,560,o),
(465,476,o),
(465,327,cs),
(465,175,o),
(401,89,o),
(305,89,cs),
(209,89,o),
(145,175,o),
(145,327,cs)
);
}
);
width = 610;
}
);
note = zero.tf;
},
{
glyphname = one.tf;
lastChange = "2026-05-16 20:07:26 +0000";
layers = (
{
hints = (
{
horizontal = 1;
place = (650,-20);
target = down;
type = TopGhost;
},
{
horizontal = 1;
place = (0,90);
type = Stem;
},
{
place = (295,90);
type = Stem;
}
);
layerId = m01;
shapes = (
{
closed = 1;
nodes = (
(96,0,l),
(574,0,l),
(574,123,l),
(406,123,l),
(406,650,l),
(281,650,l),
(229,601,o),
(195,569,o),
(104,529,cs),
(70,514,l),
(106,402,l),
(128,408,ls),
(194,426,o),
(275,478,o),
(311,547,c),
(331,530,l),
(274,462,l),
(274,123,l),
(96,123,l)
);
}
);
width = 610;
}
);
note = one.tf;
},
{
glyphname = two.tf;
lastChange = "2026-05-16 20:12:54 +0000";
layers = (
{
hints = (
{
horizontal = 1;
place = (572,90);
type = Stem;
},
{
horizontal = 1;
place = (0,90);
type = Stem;
},
{
place = (413,97);
type = Stem;
}
);
layerId = m01;
shapes = (
{
closed = 1;
nodes = (
(65,0,l),
(536,0,l),
(536,132,l),
(335,132,ls),
(293,132,o),
(257,111,o),
(226,78,cs),
(226,78,l),
(209,93,l),
(408,274,ls),
(468,329,o),
(519,389,o),
(519,473,cs),
(519,577,o),
(421,662,o),
(291,662,cs),
(202,662,o),
(105,611,o),
(47,548,c),
(110,452,l),
(153,497,o),
(228,539,o),
(291,539,cs),
(340,539,o),
(368,526,o),
(383,501,cs),
(402,471,o),
(376,412,o),
(327,368,cs),
(65,132,l)
);
}
);
width = 610;
}
);
note = two.tf;
},
{
glyphname = three.tf;
lastChange = "2026-05-16 20:25:20 +0000";
layers = (
{
hints = (
{
horizontal = 1;
place = (585,65);
type = Stem;
},
{
horizontal = 1;
place = (560,90);
type = Stem;
},
{
horizontal = 1;
place = (311,79);
type = Stem;
},
{
horizontal = 1;
place = (-13,90);
type = Stem;
},
{
place = (427,94);
type = Stem;
}
);
layerId = m01;
shapes = (
{
closed = 1;
nodes = (
);
},
{
closed = 1;
nodes = (
(436,-11,o),
(552,52,o),
(552,221,cs),
(552,341,o),
(470,391,o),
(359,395,c),
(520,536,l),
(520,650,l),
(68,650,l),
(68,527,l),
(351,527,l),
(187,371,l),
(230,290,l),
(244,292,o),
(266,295,o),
(287,295,cs),
(371,295,o),
(423,266,o),
(423,204,cs),
(423,133,o),
(364,102,o),
(287,102,cs),
(218,102,o),
(151,141,o),
(112,186,c),
(36,102,l),
(90,38,o),
(181,-11,o),
(283,-11,cs)
);
}
);
width = 610;
}
);
note = three.tf;
},
{
glyphname = period;
lastChange = "2026-05-16 21:33:13 +0000";
layers = (
{
layerId = m01;
shapes = (
{
closed = 1;
nodes = (
(326,-11,o),
(355,18,o),
(355,55,cs),
(355,90,o),
(326,119,o),
(289,119,cs),
(254,119,o),
(225,90,o),
(225,55,cs),
(225,18,o),
(254,-11,o),
(289,-11,cs)
);
}
);
width = 600;
}
);
unicode = 46;
},
{
glyphname = tonos;
lastChange = "2026-05-16 19:50:39 +0000";
layers = (
{
anchors = (
{
name = _top;
pos = (87,510);
}
);
hints = (
{
horizontal = 1;
place = (590,160);
type = Stem;
},
{
place = (30,181);
type = Stem;
}
);
layerId = m01;
shapes = (
{
closed = 1;
nodes = (
(30,590,l),
(116,590,l),
(211,750,l),
(95,750,l)
);
}
);
width = 211;
}
);
note = tonos;
unicode = 900;
},
{
glyphname = tonos.case;
layers = (
{
hints = (
{
horizontal = 1;
place = (524,174);
type = Stem;
},
{
place = (30,155);
type = Stem;
}
);
layerId = m01;
shapes = (
{
closed = 1;
nodes = (
(30,524,l),
(112,524,l),
(185,698,l),
(81,698,l)
);
}
);
width = 185;
}
);
note = tonos.case;
},
{
glyphname = dieresistonos;
layers = (
{
hints = (
{
horizontal = 1;
place = (614,102);
type = Stem;
},
{
horizontal = 1;
place = (584,178);
type = Stem;
},
{
place = (337,102);
type = Stem;
},
{
place = (80,102);
type = Stem;
}
);
layerId = m01;
shapes = (
{
closed = 1;
nodes = (
(215,584,l),
(283,584,l),
(311,762,l),
(225,762,l)
);
},
{
closed = 1;
nodes = (
(80,637,o),
(103,614,o),
(130,614,cs),
(159,614,o),
(182,637,o),
(182,665,cs),
(182,693,o),
(159,716,o),
(130,716,cs),
(103,716,o),
(80,693,o),
(80,665,cs)
);
},
{
closed = 1;
nodes = (
(337,637,o),
(360,614,o),
(387,614,cs),
(416,614,o),
(439,637,o),
(439,665,cs),
(439,693,o),
(416,716,o),
(387,716,cs),
(360,716,o),
(337,693,o),
(337,665,cs)
);
}
);
width = 519;
}
);
note = dieresistonos;
unicode = 901;
},
{
glyphname = uni0308;
lastChange = "2026-05-16 20:35:45 +0000";
layers = (
{
anchors = (
{
name = _top;
pos = (0,510);
}
);
hints = (
{
horizontal = 1;
place = (600,120);
type = Stem;
},
{
place = (272,120);
type = Stem;
},
{
place = (80,120);
type = Stem;
}
);
layerId = m01;
shapes = (
{
closed = 1;
nodes = (
(259,600,o),
(286,627,o),
(286,661,cs),
(286,693,o),
(259,720,o),
(225,720,cs),
(192,720,o),
(166,693,o),
(166,661,cs),
(166,627,o),
(192,600,o),
(225,600,cs)
);
},
{
closed = 1;
nodes = (
(-26,627,o),
(0,600,o),
(33,600,cs),
(67,600,o),
(94,627,o),
(94,661,cs),
(94,693,o),
(67,720,o),
(33,720,cs),
(0,720,o),
(-26,693,o),
(-26,661,cs)
);
}
);
width = 1;
}
);
note = uni0308;
unicode = 776;
},
{
glyphname = uni0307;
lastChange = "2026-05-16 20:30:00 +0000";
layers = (
{
anchors = (
{
name = _top;
pos = (0,510);
}
);
hints = (
{
horizontal = 1;
place = (605,130);
type = Stem;
},
{
place = (80,130);
type = Stem;
}
);
layerId = m01;
shapes = (
{
closed = 1;
nodes = (
(36,605,o),
(65,634,o),
(65,671,cs),
(65,706,o),
(36,735,o),
(-1,735,cs),
(-36,735,o),
(-65,706,o),
(-65,671,cs),
(-65,634,o),
(-36,605,o),
(-1,605,cs)
);
}
);
width = 0;
}
);
note = uni0307;
unicode = 775;
},
{
glyphname = gravecomb;
lastChange = "2026-05-16 22:10:10 +0000";
layers = (
{
anchors = (
{
name = _top;
pos = (224,510);
}
);
hints = (
{
horizontal = 1;
place = (590,150);
type = Stem;
},
{
place = (60,241);
type = Stem;
}
);
layerId = m01;
shapes = (
{
closed = 1;
nodes = (
(212,590,l),
(306,590,l),
(241,740,l),
(109,740,l)
);
}
);
width = 0;
}
);
note = gravecomb;
unicode = 768;
},
{
glyphname = acutecomb;
lastChange = "2026-05-16 20:32:03 +0000";
layers = (
{
anchors = (
{
name = _top;
pos = (157,510);
}
);
hints = (
{
horizontal = 1;
place = (590,150);
type = Stem;
},
{
place = (80,241);
type = Stem;
}
);
layerId = m01;
shapes = (
{
closed = 1;
nodes = (
(98,590,l),
(189,590,l),
(311,740,l),
(182,740,l)
);
}
);
width = 0;
}
);
note = acutecomb;
unicode = 769;
},
{
glyphname = uni030B;
layers = (
{
anchors = (
{
name = _top;
pos = (221,510);
}
);
hints = (
{
horizontal = 1;
place = (590,150);
type = Stem;
},
{
place = (80,367);
type = Stem;
}
);
layerId = m01;
shapes = (
{
closed = 1;
nodes = (
(264,590,l),
(343,590,l),
(447,740,l),
(337,740,l)
);
},
{
closed = 1;
nodes = (
(80,590,l),
(159,590,l),
(263,740,l),
(153,740,l)
);
}
);
width = 0;
}
);
note = uni030B;
unicode = 779;
},
{
glyphname = uni0302;
layers = (
{
anchors = (
{
name = _top;
pos = (263,510);
}
);
hints = (
{
horizontal = 1;
place = (670,70);
type = Stem;
},
{
horizontal = 1;
place = (590,150);
type = Stem;
},
{
place = (80,366);
type = Stem;
}
);
layerId = m01;
shapes = (
{
closed = 1;
nodes = (
(80,590,l),
(183,590,l),
(263,670,l),
(343,590,l),
(446,590,l),
(306,740,l),
(220,740,l)
);
}
);
width = 0;
}
);
note = uni0302;
unicode = 770;
},
{
glyphname = uni030C;
layers = (
{
anchors = (
{
name = _top;
pos = (265,510);
}
);
hints = (
{
horizontal = 1;
place = (660,-20);
target = down;
type = TopGhost;
},
{
horizontal = 1;
place = (590,150);
type = Stem;
},
{
place = (80,366);
type = Stem;
}
);
layerId = m01;
shapes = (
{
closed = 1;
nodes = (
(220,590,l),
(306,590,l),
(446,740,l),
(343,740,l),
(263,660,l),
(183,740,l),
(80,740,l)
);
}
);
width = 0;
}
);
note = uni030C;
unicode = 780;
},
{
glyphname = uni0306;
layers = (
{
anchors = (
{
name = _top;
pos = (241,510);
}
);
hints = (
{
horizontal = 1;
place = (584,156);
type = Stem;
},
{
horizontal = 1;
place = (584,80);
type = Stem;
},
{
place = (314,88);
type = Stem;
},
{
place = (80,88);
type = Stem;
}
);
layerId = m01;
shapes = (
{
closed = 1;
nodes = (
(331,584,o),
(402,651,o),
(402,740,c),
(314,740,l),
(314,698,o),
(282,664,o),
(241,664,cs),
(200,664,o),
(168,698,o),
(168,740,c),
(80,740,l),
(80,651,o),
(149,584,o),
(241,584,cs)
);
}
);
width = 0;
}
);
note = uni0306;
unicode = 774;
},
{
glyphname = uni030A;
layers = (
{
anchors = (
{
name = _top;
pos = (195,510);
}
);
hints = (
{
horizontal = 1;
place = (727,57);
type = Stem;
},
{
horizontal = 1;
place = (568,57);
type = Stem;
},
{
place = (246,62);
type = Stem;
},
{
place = (80,62);
type = Stem;
}
);
layerId = m01;
shapes = (
{
closed = 1;
nodes = (
(257,568,o),
(308,615,o),
(308,678,cs),
(308,738,o),
(257,784,o),
(195,784,cs),
(131,784,o),
(80,738,o),
(80,678,cs),
(80,615,o),
(131,568,o),
(195,568,cs)
);
},
{
closed = 1;
nodes = (
(142,705,o),
(166,727,o),
(195,727,cs),
(224,727,o),
(246,705,o),
(246,678,cs),
(246,650,o),
(224,625,o),
(195,625,cs),
(166,625,o),
(142,650,o),
(142,678,cs)
);
}
);
width = 0;
}
);
note = uni030A;
unicode = 778;
},
{
glyphname = tildecomb;
layers = (
{
anchors = (
{
name = _top;
pos = (246,510);
}
);
hints = (
{
horizontal = 1;
place = (643,82);
type = Stem;
},
{
horizontal = 1;
place = (600,127);
type = Stem;
},
{
horizontal = 1;
place = (600,82);
type = Stem;
},
{
horizontal = 1;
place = (598,127);
type = Stem;
},
{
place = (335,78);
type = Stem;
},
{
place = (80,78);
type = Stem;
}
);
layerId = m01;
shapes = (
{
closed = 1;
nodes = (
(158,598,l),
(160,622,o),
(172,643,o),
(192,643,cs),
(216,643,o),
(255,600,o),
(305,600,cs),
(365,600,o),
(413,649,o),
(413,727,c),
(335,727,l),
(333,703,o),
(321,682,o),
(301,682,cs),
(277,682,o),
(238,725,o),
(188,725,cs),
(128,725,o),
(80,676,o),
(80,598,c)
);
}
);
width = 0;
}
);
note = tildecomb;
unicode = 771;
},
{
glyphname = uni0304;
layers = (
{
anchors = (
{
name = _top;
pos = (236,510);
}
);
hints = (
{
horizontal = 1;
place = (618,84);
type = Stem;
},
{
place = (80,312);
type = Stem;
}
);
layerId = m01;
shapes = (
{
closed = 1;
nodes = (
(80,618,l),
(392,618,l),
(392,702,l),
(80,702,l)
);
}
);
width = 0;
}
);
note = uni0304;
unicode = 772;
},
{
glyphname = uni0312;
layers = (
{
anchors = (
{
name = _top;
pos = (124,510);
}
);
hints = (
{
horizontal = 1;
place = (596,184);
type = Stem;
},
{
place = (80,88);
type = Stem;
}
);
layerId = m01;
shapes = (
{
closed = 1;
nodes = (
(168,780,l),
(142,780,l),
(80,718,l),
(80,596,l),
(168,596,l)
);
}
);
width = 0;
}
);
note = uni0312;
unicode = 786;
},
{
glyphname = uni0326;
layers = (
{
anchors = (
{
name = _ogonek;
pos = (124,0);
}
);
hints = (
{
horizontal = 1;
place = (-250,184);
type = Stem;
},
{
place = (80,88);
type = Stem;
}
);
layerId = m01;
shapes = (
{
closed = 1;
nodes = (
(80,-250,l),
(106,-250,l),
(168,-188,l),
(168,-66,l),
(80,-66,l)
);
}
);
width = 0;
}
);
note = uni0326;
unicode = 806;
},
{
glyphname = dieresis;
lastChange = "2026-05-16 20:44:31 +0000";
layers = (
{
hints = (
{
horizontal = 1;
place = (600,120);
type = Stem;
},
{
place = (272,120);
type = Stem;
},
{
place = (80,120);
type = Stem;
}
);
layerId = m01;
shapes = (
{
closed = 1;
nodes = (
(-265,782,o),
(-238,809,o),
(-238,843,cs),
(-238,875,o),
(-265,902,o),
(-299,902,cs),
(-332,902,o),
(-358,875,o),
(-358,843,cs),
(-358,809,o),
(-332,782,o),
(-299,782,cs)
);
},
{
closed = 1;
nodes = (
(-550,809,o),
(-524,782,o),
(-491,782,cs),
(-457,782,o),
(-430,809,o),
(-430,843,cs),
(-430,875,o),
(-457,902,o),
(-491,902,cs),
(-524,902,o),
(-550,875,o),
(-550,843,cs)
);
}
);
width = 472;
}
);
note = dieresis;
unicode = 168;
},
{
glyphname = dotaccent;
layers = (
{
hints = (
{
horizontal = 1;
place = (605,130);
type = Stem;
},
{
place = (80,130);
type = Stem;
}
);
layerId = m01;
shapes = (
{
closed = 1;
nodes = (
(181,605,o),
(210,634,o),
(210,671,cs),
(210,706,o),
(181,735,o),
(144,735,cs),
(109,735,o),
(80,706,o),
(80,671,cs),
(80,634,o),
(109,605,o),
(144,605,cs)
);
}
);
width = 0;
}
);
note = dotaccent;
unicode = 729;
},
{
glyphname = grave;
layers = (
{
hints = (
{
horizontal = 1;
place = (590,150);
type = Stem;
},
{
place = (60,241);
type = Stem;
}
);
layerId = m01;
shapes = (
{
closed = 1;
nodes = (
(210,590,l),
(301,590,l),
(189,740,l),
(60,740,l)
);
}
);
width = 381;
}
);
note = grave;
unicode = 96;
},
{
glyphname = acute;
layers = (
{
hints = (
{
horizontal = 1;
place = (590,150);
type = Stem;
},
{
place = (80,241);
type = Stem;
}
);
layerId = m01;
shapes = (
{
closed = 1;
nodes = (
(80,590,l),
(171,590,l),
(321,740,l),
(192,740,l)
);
}
);
width = 381;
}
);
note = acute;
unicode = 180;
},
{
glyphname = hungarumlaut;
layers = (
{
hints = (
{
horizontal = 1;
place = (590,150);
type = Stem;
},
{
place = (80,367);
type = Stem;
}
);
layerId = m01;
shapes = (
{
closed = 1;
nodes = (
(264,590,l),
(343,590,l),
(447,740,l),
(337,740,l)
);
},
{
closed = 1;
nodes = (
(80,590,l),
(159,590,l),
(263,740,l),
(153,740,l)
);
}
);
width = 527;
}
);
note = hungarumlaut;
unicode = 733;
},
{
glyphname = circumflex;
lastChange = "2026-05-16 20:32:25 +0000";
layers = (
{
hints = (
{
horizontal = 1;
place = (670,70);
type = Stem;
},
{
horizontal = 1;
place = (590,150);
type = Stem;
},
{
place = (80,366);
type = Stem;
}
);
layerId = m01;
shapes = (
{
closed = 1;
nodes = (
(-562,772,l),
(-459,772,l),
(-379,852,l),
(-299,772,l),
(-196,772,l),
(-336,922,l),
(-422,922,l)
);
}
);
width = 526;
}
);
note = circumflex;
unicode = 710;
},
{
glyphname = caron;
layers = (
{
hints = (
{
horizontal = 1;
place = (660,-20);
target = down;
type = TopGhost;
},
{
horizontal = 1;
place = (590,150);
type = Stem;
},
{
place = (80,366);
type = Stem;
}
);
layerId = m01;
shapes = (
{
closed = 1;
nodes = (
(220,590,l),
(306,590,l),
(446,740,l),
(343,740,l),
(263,660,l),
(183,740,l),
(80,740,l)
);
}
);
width = 526;
}
);
note = caron;
unicode = 711;
},
{
glyphname = breve;
layers = (
{
hints = (
{
horizontal = 1;
place = (584,156);
type = Stem;
},
{
horizontal = 1;
place = (584,80);
type = Stem;
},
{
place = (314,88);
type = Stem;
},
{
place = (80,88);
type = Stem;
}
);
layerId = m01;
shapes = (
{
closed = 1;
nodes = (
(331,584,o),
(402,651,o),
(402,740,c),
(314,740,l),
(314,698,o),
(282,664,o),
(241,664,cs),
(200,664,o),
(168,698,o),
(168,740,c),
(80,740,l),
(80,651,o),
(149,584,o),
(241,584,cs)
);
}
);
width = 482;
}
);
note = breve;
unicode = 728;
},
{
glyphname = ring;
lastChange = "2026-05-16 20:38:09 +0000";
layers = (
{
hints = (
{
horizontal = 1;
place = (727,57);
type = Stem;
},
{
horizontal = 1;
place = (568,57);
type = Stem;
},
{
place = (246,62);
type = Stem;
},
{
place = (80,62);
type = Stem;
}
);
layerId = m01;
shapes = (
{
closed = 1;
nodes = (
(257,714,o),
(308,761,o),
(308,824,cs),
(308,884,o),
(257,930,o),
(195,930,cs),
(131,930,o),
(80,884,o),
(80,824,cs),
(80,761,o),
(131,714,o),
(195,714,cs)
);
},
{
closed = 1;
nodes = (
(142,851,o),
(166,873,o),
(195,873,cs),
(224,873,o),
(246,851,o),
(246,824,cs),
(246,796,o),
(224,771,o),
(195,771,cs),
(166,771,o),
(142,796,o),
(142,824,cs)
);
}
);
width = 388;
}
);
note = ring;
unicode = 730;
},
{
glyphname = tilde;
layers = (
{
hints = (
{
horizontal = 1;
place = (643,82);
type = Stem;
},
{
horizontal = 1;
place = (600,127);
type = Stem;
},
{
horizontal = 1;
place = (600,82);
type = Stem;
},
{
horizontal = 1;
place = (598,127);
type = Stem;
},
{
place = (335,78);
type = Stem;
},
{
place = (80,78);
type = Stem;
}
);
layerId = m01;
shapes = (
{
closed = 1;
nodes = (
(158,598,l),
(160,622,o),
(172,643,o),
(192,643,cs),
(216,643,o),
(255,600,o),
(305,600,cs),
(365,600,o),
(413,649,o),
(413,727,c),
(335,727,l),
(333,703,o),
(321,682,o),
(301,682,cs),
(277,682,o),
(238,725,o),
(188,725,cs),
(128,725,o),
(80,676,o),
(80,598,c)
);
}
);
width = 493;
}
);
note = tilde;
unicode = 732;
},
{
glyphname = macron;
layers = (
{
hints = (
{
horizontal = 1;
place = (618,84);
type = Stem;
},
{
place = (80,312);
type = Stem;
}
);
layerId = m01;
shapes = (
{
closed = 1;
nodes = (
(80,618,l),
(392,618,l),
(392,702,l),
(80,702,l)
);
}
);
width = 0;
}
);
note = macron;
unicode = 175;
},
{
glyphname = cedilla;
layers = (
{
hints = (
{
horizontal = 1;
place = (-68,59);
type = Stem;
},
{
horizontal = 1;
place = (-220,66);
type = Stem;
},
{
place = (187,78);
type = Stem;
},
{
place = (80,185);
type = Stem;
}
);
layerId = m01;
shapes = (
{
closed = 1;
nodes = (
(214,-220,o),
(265,-178,o),
(265,-111,cs),
(265,-55,o),
(214,-12,o),
(144,-9,c),
(85,-68,l),
(112,-68,ls),
(162,-68,o),
(187,-87,o),
(187,-113,cs),
(187,-137,o),
(166,-154,o),
(132,-154,cs),
(115,-154,o),
(94,-150,o),
(80,-145,c),
(80,-211,l),
(95,-216,o),
(116,-220,o),
(138,-220,cs)
);
}
);
width = 345;
}
);
note = cedilla;
unicode = 184;
},
